<?xml version="1.0" encoding="UTF-8"?>
<svg version="1.1" xmlns="http://www.w3.org/2000/svg" width="976" height="700">
<path d="M0 0 C0.91465027 0.00182281 1.82930054 0.00364563 2.77166748 0.00552368 C17.48261349 0.05467651 31.86192013 0.74049771 46.375 3.3125 C47.3438916 3.47878906 48.3127832 3.64507812 49.31103516 3.81640625 C93.96390335 11.69246335 135.82317515 30.15419625 171.375 58.3125 C172.26960938 59.01503906 173.16421875 59.71757813 174.0859375 60.44140625 C189.54162877 72.81924496 204.20492045 86.67374956 216.375 102.3125 C217.38276145 103.57946769 218.39057757 104.8463919 219.3984375 106.11328125 C248.78994761 143.41177055 267.75275197 187.4798901 275.375 234.3125 C275.56263916 235.43922119 275.75027832 236.56594238 275.94360352 237.72680664 C277.63851076 249.28792961 277.71334575 260.80357724 277.69067383 272.47290039 C277.68752808 275.84489754 277.71100516 279.21600206 277.73632812 282.58789062 C277.77855972 297.05773166 276.67429314 311.0297283 274.375 325.3125 C274.10079224 327.07533325 274.10079224 327.07533325 273.82104492 328.8737793 C269.75093576 353.23454933 261.35050514 377.23093614 250.375 399.3125 C249.95637695 400.16602051 249.53775391 401.01954102 249.10644531 401.89892578 C240.33896774 419.65160553 229.79087612 435.90651656 217.375 451.3125 C216.61832031 452.27414062 215.86164063 453.23578125 215.08203125 454.2265625 C208.95525478 461.76571192 202.21975657 468.67816921 195.375 475.5625 C194.46137695 476.48538818 193.54775391 477.40827637 192.60644531 478.35913086 C140.05986453 530.66618039 68.22254973 554.66751201 -4.72631836 554.55908203 C-18.89237082 554.49685766 -32.66278206 553.90357221 -46.625 551.3125 C-47.68283691 551.11914062 -48.74067383 550.92578125 -49.83056641 550.7265625 C-74.44962612 546.06938816 -98.14797602 538.39068763 -120.625 527.3125 C-121.88787842 526.69834229 -121.88787842 526.69834229 -123.17626953 526.07177734 C-145.51434636 515.12223154 -166.0809203 501.20909209 -184.39453125 484.359375 C-186.45796274 482.46578813 -188.56074581 480.63423836 -190.6875 478.8125 C-197.89082644 472.5241122 -204.50981338 465.65789017 -210.625 458.3125 C-211.05683594 457.79445801 -211.48867188 457.27641602 -211.93359375 456.74267578 C-224.23116235 441.90810878 -234.22553005 426.11028503 -243.625 409.3125 C-244.03137695 408.59304199 -244.43775391 407.87358398 -244.85644531 407.13232422 C-251.15996615 395.91247354 -256.16189958 384.37670455 -260.625 372.3125 C-261.03661377 371.21349365 -261.03661377 371.21349365 -261.45654297 370.09228516 C-269.03160597 349.6063541 -273.37668817 328.00221769 -275.625 306.3125 C-275.76748169 304.9661145 -275.76748169 304.9661145 -275.9128418 303.5925293 C-276.72853396 295.02304864 -276.82536833 286.47450042 -276.8125 277.875 C-276.81189575 277.12616547 -276.8112915 276.37733093 -276.81066895 275.60580444 C-276.7840458 263.41061716 -276.34663831 251.40185843 -274.625 239.3125 C-274.50141113 238.42159668 -274.37782227 237.53069336 -274.25048828 236.61279297 C-266.432482 182.18999289 -241.89979635 130.2444855 -204.25390625 90.12890625 C-201.7635021 87.46088041 -199.34740656 84.740597 -196.9375 82 C-193.69879692 78.39313174 -190.34142614 75.13415386 -186.63671875 72.01171875 C-184.52087842 70.22455264 -182.48321089 68.36685092 -180.4375 66.5 C-143.85238029 34.04243226 -97.65253451 13.44291308 -49.9375 4.0625 C-49.18001465 3.91135742 -48.4225293 3.76021484 -47.64208984 3.60449219 C-31.86612666 0.68947584 -16.00879739 -0.06677192 0 0 Z " fill="#FA6A3A" transform="translate(499.625,3.6875)"/>
<path d="M0 0 C-1.43035812 4.01213625 -3.36331392 7.22743084 -5.78125 10.7265625 C-6.54440883 11.84191252 -7.30700059 12.9576507 -8.0690918 14.07373047 C-8.66504654 14.94260895 -8.66504654 14.94260895 -9.27304077 15.82904053 C-26.92028688 41.66016684 -39.53108268 66.98492323 -39.1875 99 C-39.17674438 100.93093506 -39.17674438 100.93093506 -39.16577148 102.90087891 C-39.03004035 121.94426305 -38.40582461 141.00641222 -37 160 C-30.87871451 158.04600871 -30.87871451 158.04600871 -26 154 C-24.37062226 150.42859639 -23.18918742 146.73744619 -22 143 C-18.98313298 133.60570524 -15.3856929 125.3356729 -6.79296875 119.796875 C-5 119 -5 119 -1.375 118.6875 C3.39696796 120.54326532 4.67722603 123.57907497 7 128 C8.83709542 132.18235039 10.39319349 136.46491552 11.9609375 140.75390625 C14.45823712 147.31680966 17.00747135 152.0049809 23 156 C25.29823686 156.3204464 25.29823686 156.3204464 27.87939453 156.30297852 C29.36706833 156.32794151 29.36706833 156.32794151 30.88479614 156.35340881 C32.49256424 156.36603004 32.49256424 156.36603004 34.1328125 156.37890625 C35.23922089 156.39590073 36.34562927 156.4128952 37.48556519 156.43040466 C41.03198493 156.48360486 44.57839458 156.52381413 48.125 156.5625 C51.65011808 156.60660012 55.17515077 156.65354189 58.70016479 156.70530701 C60.89388634 156.73694159 63.08768146 156.76392766 65.28152466 156.78553772 C84.0135193 157.03555523 84.0135193 157.03555523 92 164 C97.90935452 170.21239835 102.46418797 177.25423634 103.4375 185.875 C103 189 103 189 101.81606388 190.67123318 C99.3079201 192.50637691 97.59953841 192.37901178 94.50547791 192.38526917 C93.36306641 192.39491699 92.22065491 192.40456482 91.04362488 192.414505 C89.78906998 192.40992783 88.53451508 192.40535065 87.24194336 192.40063477 C85.90798323 192.4063769 84.5740283 192.41345951 83.24008179 192.42178345 C80.36554591 192.43690959 77.49119591 192.44266966 74.61662102 192.44125557 C70.06426053 192.43922174 65.51214936 192.45879301 60.95985413 192.48143005 C52.10757727 192.52244248 43.25531982 192.54100449 34.40296936 192.55760193 C23.16072536 192.57993655 11.91853926 192.61368847 0.6763888 192.66480106 C-3.84100313 192.68463395 -8.3582654 192.6942969 -12.87569916 192.69575322 C-15.69943467 192.69852198 -18.52309982 192.70939308 -21.34680557 192.72226334 C-23.26283519 192.72852025 -25.17888916 192.72496712 -27.09492493 192.72102356 C-39.20171437 192.64902996 -39.20171437 192.64902996 -50.125 197.125 C-52.73617453 201.12880095 -52.45111855 203.26325521 -52 208 C-51.68807072 209.33850253 -51.36037042 210.67371871 -51 212 C-49.88439697 212.11593506 -48.76879395 212.23187012 -47.61938477 212.35131836 C-43.49472549 212.78112818 -39.37069209 213.2167018 -35.24682617 213.65405273 C-33.45923228 213.84281094 -31.67147082 214.02998904 -29.88354492 214.21557617 C-27.31904513 214.48204539 -24.75519448 214.7541239 -22.19140625 215.02734375 C-20.98515343 215.1508445 -20.98515343 215.1508445 -19.75453186 215.27684021 C-14.11387171 215.88612829 -14.11387171 215.88612829 -13 217 C-12.87510302 219.40250532 -12.8139921 221.77772785 -12.79467773 224.18188477 C-12.78477814 224.93305573 -12.77487854 225.68422668 -12.76467896 226.4581604 C-12.73297454 228.95254312 -12.70827141 231.44694491 -12.68359375 233.94140625 C-12.66303193 235.66634123 -12.64203567 237.39127108 -12.62062073 239.11619568 C-12.56532029 243.66506814 -12.51594631 248.21398667 -12.46777344 252.76293945 C-12.41761646 257.40124633 -12.36190017 262.03948598 -12.30664062 266.67773438 C-12.19896161 275.78509888 -12.09753843 284.89252165 -12 294 C-10.95533066 294.08007797 -10.95533066 294.08007797 -9.88955688 294.16177368 C-6.66836539 294.41009601 -3.44746832 294.66206287 -0.2265625 294.9140625 C1.41590454 295.03986694 1.41590454 295.03986694 3.09155273 295.16821289 C53.20419419 299.11132062 53.20419419 299.11132062 67 314 C72.69708943 321.33199667 73.90107176 327.41348189 73.625 336.5625 C73.63144531 337.63435547 73.63789062 338.70621094 73.64453125 339.81054688 C73.55161027 346.71626512 72.36645417 351.95599112 69 358 C67.21629632 354.61491871 66.42089061 351.57843831 65.6875 347.8125 C64.3479104 341.8079074 62.43483468 337.08480058 59 332 C58.319375 330.989375 57.63875 329.97875 56.9375 328.9375 C50.44733138 321.91647326 44.07153674 317.67175273 34.48384094 317.1622467 C30.75658021 317.09558349 27.04146894 317.12527899 23.31518555 317.23168945 C20.41156613 317.31322827 17.51208795 317.33422609 14.60742188 317.34570312 C12.7577657 317.36892793 10.90814781 317.39549735 9.05859375 317.42578125 C8.19302353 317.43539383 7.32745331 317.44500641 6.43565369 317.45491028 C5.633741 317.48050522 4.83182831 317.50610016 4.00561523 317.5324707 C2.95071144 317.55867241 2.95071144 317.55867241 1.87449646 317.58540344 C-0.58322649 318.12899661 -1.49530518 319.00574563 -3 321 C-3.36398618 324.43080118 -3.36398618 324.43080118 -3.1875 328.1875 C-3.14689453 330.09595703 -3.14689453 330.09595703 -3.10546875 332.04296875 C-3.07066406 333.01878906 -3.03585937 333.99460937 -3 335 C-0.41391846 336.29304077 1.55994378 336.17677503 4.453125 336.24609375 C5.54753906 336.27896484 6.64195312 336.31183594 7.76953125 336.34570312 C10.0741293 336.40648658 12.37882097 336.46382631 14.68359375 336.51757812 C15.78316406 336.55173828 16.88273438 336.58589844 18.015625 336.62109375 C19.01883789 336.6461499 20.02205078 336.67120605 21.05566406 336.69702148 C24.26609273 337.02738152 26.98262724 337.87816347 30 339 C30.0625 341.25 30.0625 341.25 29 344 C20.60091239 349.74879546 9.81015169 350.14569532 0 350 C0.02618408 350.88445801 0.05236816 351.76891602 0.0793457 352.68017578 C0.5419762 370.74267574 0.56318044 387.60265808 -5 405 C-5.27875977 405.88623047 -5.55751953 406.77246094 -5.84472656 407.68554688 C-9.38457294 418.66965491 -13.83083021 429.191719 -18.75 439.625 C-19.43956787 441.09247681 -19.43956787 441.09247681 -20.14306641 442.58959961 C-20.58569824 443.50104736 -21.02833008 444.41249512 -21.484375 445.3515625 C-22.06783691 446.55546631 -22.06783691 446.55546631 -22.66308594 447.78369141 C-24.15355521 450.25456067 -25.89099204 452.04355144 -28 454 C-29.98 449.05 -29.98 449.05 -32 444 C-46.55843074 451.27921537 -58.44938184 472.93096923 -63.98828125 487.62109375 C-66.48133392 495.57286839 -66.69916029 503.7320949 -67 512 C-68.04796218 511.15356901 -69.08792692 510.29723808 -70.125 509.4375 C-70.70507812 508.96183594 -71.28515625 508.48617188 -71.8828125 507.99609375 C-81.82153709 498.6258202 -85.99269263 487.04435771 -86.76416016 473.45678711 C-86.9324137 464.68805825 -85.41731583 457.59239987 -81.49145508 449.73022461 C-79.08176631 444.87837478 -78.50170332 441.4407044 -79 436 C-80.87015094 433.56880377 -82.28138345 432.35930827 -85 431 C-90.24308569 430.59668572 -93.56127553 431.13948867 -98 434 C-101.87497074 438.04050347 -103.18760818 441.99217204 -104.625 447.25 C-105.35315823 449.86768275 -106.13446158 452.42104879 -107 455 C-107.66 455.33 -108.32 455.66 -109 456 C-111.86750338 448.44021836 -113.03137596 441.0110906 -114 433 C-121.7013402 436.16305044 -127.52158035 440.7862008 -131.16796875 448.45703125 C-134.28756426 457.75723383 -133.03605532 466.87293738 -131.7121582 476.37939453 C-131.21778883 479.95027948 -130.88840717 483.39415678 -131 487 C-136.04211973 485.08747183 -137.31700086 481.42997542 -139.54296875 476.76953125 C-146.65287894 459.62865698 -148.98830693 438.27728001 -142 421 C-139.00766853 414.60501736 -134.99330178 408.80469641 -131 403 C-143.87455723 405.96945433 -155.63757305 412.67949951 -163 424 C-169.3992249 436.68383682 -166.8156806 446.9745843 -163 460 C-162.65766885 461.33105157 -162.31908873 462.66318615 -162 464 C-167.87301767 462.04232744 -171.18334304 455.13731876 -174.1875 449.94921875 C-179.29804856 438.47505443 -175.03945745 426.09184355 -171 415 C-169.03567656 410.00764006 -166.85494424 405.10970398 -164.66976929 400.21099854 C-158.72258648 386.8244327 -153.17729097 373.43606775 -149.01708984 359.37255859 C-148.27368013 356.90749337 -147.50559928 354.46065646 -146.70556641 352.01416016 C-140.85880646 334.06319412 -137.04602076 317.1500948 -137.125 298.1875 C-137.12491943 297.38641815 -137.12483887 296.5853363 -137.12475586 295.75997925 C-137.18348168 285.77671776 -138.42171274 276.95330479 -141.43652344 267.42211914 C-142.11937885 263.27498556 -141.375253 261.72554739 -139.125 258.25 C-137.75936048 256.49268566 -136.38427131 254.74267551 -135 253 C-127.13154185 239.95926866 -124.57276547 225.9864601 -124.12994385 210.97851562 C-123.65574751 195.7493033 -122.29957883 180.63898436 -120.625 165.5 C-120.47600754 164.10716293 -120.47600754 164.10716293 -120.32400513 162.68618774 C-117.66174918 137.95733018 -113.15989435 114.94888692 -101 93 C-100.66516602 92.39269043 -100.33033203 91.78538086 -99.98535156 91.15966797 C-92.93936139 78.66718877 -82.93171795 68.98933174 -72.0546875 59.76953125 C-69.31280819 57.40817892 -66.65949133 54.95305242 -64 52.5 C-60.04446632 48.85793991 -56.0543735 45.26499611 -51.9921875 41.7421875 C-49.63979365 39.68499601 -47.31965034 37.59403085 -45 35.5 C-36.13589152 27.5088719 -27.08465165 19.73850289 -18 12 C-17.42540039 11.50935059 -16.85080078 11.01870117 -16.25878906 10.51318359 C-14.63474158 9.12912693 -13.00580313 7.75108576 -11.375 6.375 C-9.96347656 5.18003906 -9.96347656 5.18003906 -8.5234375 3.9609375 C-3.42629482 0 -3.42629482 0 0 0 Z " fill="#4C2C2C" transform="translate(515,21)"/>
<path d="M0 0 C11.55 0 23.1 0 35 0 C35 2.31 35 4.62 35 7 C33.02 7 31.04 7 29 7 C32.96 28.45 36.92 49.9 41 72 C42.76724137 62.57471272 44.51735804 53.18035868 46.04296875 43.71875 C46.21629227 42.65378296 46.38961578 41.58881592 46.56819153 40.49157715 C47.10977002 37.1613422 47.6486915 33.83068411 48.1875 30.5 C48.55906708 28.21221071 48.93081061 25.92445008 49.30273438 23.63671875 C50.20385459 18.09147403 51.1028068 12.54588137 52 7 C50.68 7 49.36 7 48 7 C48 4.69 48 2.38 48 0 C58.56 0 69.12 0 80 0 C80 2.31 80 4.62 80 7 C78.02 7.33 76.04 7.66 74 8 C74.33 9.051875 74.66 10.10375 75 11.1875 C75.85647477 14.45281007 76.08693031 16.69664829 76 20 C76.42275109 22.59689957 76.82370173 24.64740346 78 27 C78.28919951 28.57988284 78.53611443 30.16760219 78.76171875 31.7578125 C78.90834961 32.76118652 79.05498047 33.76456055 79.20605469 34.79833984 C79.36493164 35.8961377 79.52380859 36.99393555 79.6875 38.125 C81.49899752 50.34478511 83.70929993 62.46258428 86.0690918 74.58642578 C86.26111427 75.58292145 86.26111427 75.58292145 86.45701599 76.59954834 C86.80572545 78.40731461 87.15905238 80.21418845 87.51269531 82.02099609 C88 85 88 85 88 89 C90.64 89 93.28 89 96 89 C96 91.31 96 93.62 96 96 C85.11 96 74.22 96 63 96 C63 93.69 63 91.38 63 89 C64.65 89 66.3 89 68 89 C67.87995605 88.41025391 67.75991211 87.82050781 67.63623047 87.21289062 C63.9063131 68.84050367 60.43080277 50.43059162 57 32 C54.03 50.81 51.06 69.62 48 89 C49.65 89 51.3 89 53 89 C53 91.31 53 93.62 53 96 C41.45 96 29.9 96 18 96 C18 93.69 18 91.38 18 89 C20.475 88.505 20.475 88.505 23 88 C19.37 67.87 15.74 47.74 12 27 C9.83270252 30.25094621 8.43573421 33.58039548 7 37.1875 C6.73960938 37.82236328 6.47921875 38.45722656 6.2109375 39.11132812 C5.95570312 39.74876953 5.70046875 40.38621094 5.4375 41.04296875 C5.20933594 41.61039795 4.98117188 42.17782715 4.74609375 42.76245117 C2.39012779 49.82803625 1.7308728 55.92892941 1.83984375 63.3359375 C1.84504532 64.29650055 1.85024689 65.2570636 1.85560608 66.24673462 C1.87330015 69.28964958 1.90448389 72.33221585 1.9375 75.375 C1.9651203 78.43917172 1.98979728 81.5032971 2.00868225 84.5675354 C2.02094245 86.4684375 2.03854908 88.36931406 2.06199646 90.27011108 C2.06852737 91.12505157 2.07505829 91.97999207 2.08178711 92.86083984 C2.09004013 93.61392426 2.09829315 94.36700867 2.10679626 95.14291382 C2 97 2 97 1 99 C-1.97 99 -4.94 99 -8 99 C-8 98.34 -8 97.68 -8 97 C-9.32 97 -10.64 97 -12 97 C-12 97.66 -12 98.32 -12 99 C-14.31 99 -16.62 99 -19 99 C-23.42951246 92.26714105 -21.70425704 80.23113786 -20.27734375 72.609375 C-17.70166844 60.88964 -12.41249973 51.53875193 -6.12109375 41.4296875 C4.06768991 25.27021143 4.06768991 25.27021143 9 7 C6.03 7 3.06 7 0 7 C0 4.69 0 2.38 0 0 Z " fill="#4C2C2C" transform="translate(35,578)"/>
<path d="M0 0 C26.73 0 53.46 0 81 0 C81 2.31 81 4.62 81 7 C78.03 7 75.06 7 72 7 C72 34.06 72 61.12 72 89 C74.97 89 77.94 89 81 89 C81 91.31 81 93.62 81 96 C68.46 96 55.92 96 43 96 C43 93.69 43 91.38 43 89 C45.64 89 48.28 89 51 89 C51 61.94 51 34.88 51 7 C43.74 7 36.48 7 29 7 C29 34.06 29 61.12 29 89 C31.64 89 34.28 89 37 89 C37 91.31 37 93.62 37 96 C24.79 96 12.58 96 0 96 C0 93.69 0 91.38 0 89 C2.97 89 5.94 89 9 89 C9 61.94 9 34.88 9 7 C6.03 7 3.06 7 0 7 C0 4.69 0 2.38 0 0 Z " fill="#4C2C2C" transform="translate(332,578)"/>
<path d="M0 0 C26.4 0 52.8 0 80 0 C80 2.31 80 4.62 80 7 C77.36 7 74.72 7 72 7 C72 34.06 72 61.12 72 89 C74.64 89 77.28 89 80 89 C80 91.31 80 93.62 80 96 C67.79 96 55.58 96 43 96 C43 93.69 43 91.38 43 89 C45.64 89 48.28 89 51 89 C51 61.94 51 34.88 51 7 C43.74 7 36.48 7 29 7 C29 34.06 29 61.12 29 89 C31.64 89 34.28 89 37 89 C37 91.31 37 93.62 37 96 C24.79 96 12.58 96 0 96 C0 93.69 0 91.38 0 89 C2.97 89 5.94 89 9 89 C9 61.94 9 34.88 9 7 C6.03 7 3.06 7 0 7 C0 4.69 0 2.38 0 0 Z " fill="#4C2C2C" transform="translate(136,578)"/>
<path d="M0 0 C12.21 0 24.42 0 37 0 C37 2.31 37 4.62 37 7 C34.36 7 31.72 7 29 7 C29 18.22 29 29.44 29 41 C31.95393964 38.04606036 32.78468653 36.52679388 34.25 32.75 C45.7884195 4.19847546 45.7884195 4.19847546 55 0 C57.95015916 -0.34728991 60.84741461 -0.2844307 63.8125 -0.1875 C64.60076172 -0.17396484 65.38902344 -0.16042969 66.20117188 -0.14648438 C68.13441169 -0.11133456 70.06729682 -0.05753361 72 0 C71.85691406 0.98097656 71.71382813 1.96195313 71.56640625 2.97265625 C70.9736977 7.12161609 70.45123698 11.27813321 69.9375 15.4375 C69.84662109 16.16904297 69.75574219 16.90058594 69.66210938 17.65429688 C69.44083632 19.43612723 69.22033671 21.21805361 69 23 C62.9453125 23.1953125 62.9453125 23.1953125 61 23 C60.34 22.34 59.68 21.68 59 21 C56.17368882 20.1639933 56.17368882 20.1639933 53 21 C50.52220802 23.35007074 48.80246205 26.11513161 47 29 C46.18789063 30.27810547 46.18789063 30.27810547 45.359375 31.58203125 C42.8565541 35.63392819 40.6818376 39.53361052 39 44 C39.969375 44.0825 40.93875 44.165 41.9375 44.25 C49.20593001 45.31151513 55.26714418 48.34686666 60 54 C60.845625 54.99 61.69125 55.98 62.5625 57 C69.02444195 66.45848916 69.69355827 77.92213135 70 89 C72.31 89 74.62 89 77 89 C77 91.31 77 93.62 77 96 C66.11 96 55.22 96 44 96 C44 93.69 44 91.38 44 89 C44.99 89 45.98 89 47 89 C47.02687279 87.18757948 47.04633715 85.37504767 47.0625 83.5625 C47.07410156 82.55316406 47.08570313 81.54382813 47.09765625 80.50390625 C47.28612676 78.05978933 47.28612676 78.05978933 46 77 C46.04125 76.01 46.0825 75.02 46.125 74 C46.20338965 66.36484849 43.23966832 60.37401879 38 55 C37.01 54.505 37.01 54.505 36 54 C36 53.34 36 52.68 36 52 C33.69 51.34 31.38 50.68 29 50 C29 62.87 29 75.74 29 89 C31.31 89 33.62 89 36 89 C36 91.31 36 93.62 36 96 C24.12 96 12.24 96 0 96 C0 93.69 0 91.38 0 89 C2.97 89 5.94 89 9 89 C9 61.94 9 34.88 9 7 C6.03 7 3.06 7 0 7 C0 4.69 0 2.38 0 0 Z " fill="#4C2C2C" transform="translate(223,578)"/>
<path d="M0 0 C1.02416016 -0.01998047 2.04832031 -0.03996094 3.10351562 -0.06054688 C10.88781023 -0.05557288 17.38978047 1.26322463 23.3125 6.5625 C27.6295516 14.20036052 29.06373612 21.84011046 26.9375 30.4375 C24.76386866 35.39114051 20.95780506 38.86383681 16.33203125 41.5703125 C11.66003142 43.26229286 6.82368606 42.77577442 1.9375 42.4375 C-0.38607511 42.25259993 -0.38607511 42.25259993 -3.0625 44.4375 C-0.0925 46.0875 2.8775 47.7375 5.9375 49.4375 C5.9375 50.0975 5.9375 50.7575 5.9375 51.4375 C7.236875 51.540625 8.53625 51.64375 9.875 51.75 C15.57602648 52.39845799 21.63427468 53.27822626 25.9375 57.3125 C28.73790088 63.26335186 28.12115239 69.95334554 28.125 76.375 C28.13724609 77.44685547 28.14949219 78.51871094 28.16210938 79.62304688 C28.18164616 90.14034947 28.18164616 90.14034947 25.9375 94.4375 C22.64750285 96.6259824 19.865504 96.68089497 15.97558594 96.66455078 C14.17417145 96.66432419 14.17417145 96.66432419 12.33636475 96.66409302 C11.04458313 96.65377045 9.75280151 96.64344788 8.421875 96.6328125 C7.08237927 96.62908034 5.74288079 96.62623432 4.40338135 96.62423706 C0.88521735 96.61661657 -2.6327804 96.59698187 -6.15087891 96.5748291 C-9.74379223 96.55433643 -13.33673253 96.54522804 -16.9296875 96.53515625 C-23.97402617 96.51373434 -31.01825221 96.47961765 -38.0625 96.4375 C-38.0625 94.1275 -38.0625 91.8175 -38.0625 89.4375 C-35.0925 89.4375 -32.1225 89.4375 -29.0625 89.4375 C-29.06916183 88.59971008 -29.07582367 87.76192017 -29.08268738 86.89874268 C-29.14310575 78.95579413 -29.1886293 71.01292413 -29.21793652 63.06979752 C-29.23351078 58.98734892 -29.2545959 54.90509215 -29.28881836 50.82275391 C-29.32170907 46.87401222 -29.33941475 42.92545362 -29.34713173 38.97658539 C-29.35262248 37.47928745 -29.36334251 35.98199812 -29.37969017 34.48477936 C-29.48539091 24.39133091 -29.17824059 14.54435157 -24.5 5.375 C-17.62898615 -0.08657511 -8.39963035 -0.05836761 0 0 Z M-3.0625 8.4375 C-3.0625 9.0975 -3.0625 9.7575 -3.0625 10.4375 C-4.0525 10.7675 -5.0425 11.0975 -6.0625 11.4375 C-10.25685643 19.98155939 -9.33290306 29.15366171 -9.0625 38.4375 C-8.33675781 37.80328125 -7.61101563 37.1690625 -6.86328125 36.515625 C-4.12518868 34.48401378 -2.5415101 33.7770242 0.75 33.1875 C1.54019531 33.03796875 2.33039062 32.8884375 3.14453125 32.734375 C3.73621094 32.63640625 4.32789063 32.5384375 4.9375 32.4375 C5.06125 31.468125 5.185 30.49875 5.3125 29.5 C5.51875 28.489375 5.725 27.47875 5.9375 26.4375 C6.5975 26.1075 7.2575 25.7775 7.9375 25.4375 C7.87720033 23.51997047 7.78833293 21.60332574 7.6875 19.6875 C7.64109375 18.62015625 7.5946875 17.5528125 7.546875 16.453125 C6.82042165 12.85811227 5.81653704 11.64893425 2.9375 9.4375 C-0.20731791 8.63434346 -0.20731791 8.63434346 -3.0625 8.4375 Z M-9.0625 51.4375 C-9.0625 63.9775 -9.0625 76.5175 -9.0625 89.4375 C-5.1025 89.4375 -1.1425 89.4375 2.9375 89.4375 C2.9375 88.7775 2.9375 88.1175 2.9375 87.4375 C3.9275 87.4375 4.9175 87.4375 5.9375 87.4375 C5.9375 86.7775 5.9375 86.1175 5.9375 85.4375 C6.9275 84.9425 6.9275 84.9425 7.9375 84.4375 C7.9375 77.8375 7.9375 71.2375 7.9375 64.4375 C7.2775 64.4375 6.6175 64.4375 5.9375 64.4375 C5.7003125 63.84453125 5.463125 63.2515625 5.21875 62.640625 C3.65776654 59.95649491 2.03773379 58.85907887 -0.5625 57.1875 C-1.3565625 56.66671875 -2.150625 56.1459375 -2.96875 55.609375 C-4.95347375 54.27469831 -4.95347375 54.27469831 -7.0625 54.4375 C-7.3925 53.4475 -7.7225 52.4575 -8.0625 51.4375 C-8.3925 51.4375 -8.7225 51.4375 -9.0625 51.4375 Z " fill="#4C2C2C" transform="translate(772.0625,577.5625)"/>
<path d="M0 0 C0.97340332 -0.00128906 1.94680664 -0.00257813 2.94970703 -0.00390625 C9.96639072 0.0994357 15.98074732 1.01540048 22.25 4.375 C22.25 5.035 22.25 5.695 22.25 6.375 C22.84425781 6.62378906 23.43851563 6.87257813 24.05078125 7.12890625 C26.56884001 8.55565713 27.74732092 9.97927079 29.4375 12.3125 C29.94667969 13.00214844 30.45585938 13.69179688 30.98046875 14.40234375 C32.25 16.375 32.25 16.375 33.25 19.375 C34.9 19.705 36.55 20.035 38.25 20.375 C38.25 22.685 38.25 24.995 38.25 27.375 C28.35 27.375 18.45 27.375 8.25 27.375 C8.25 25.065 8.25 22.755 8.25 20.375 C9.24 20.375 10.23 20.375 11.25 20.375 C8.41283087 13.96622622 8.41283087 13.96622622 3.25 9.375 C3.25 8.715 3.25 8.055 3.25 7.375 C-1.49277617 7.39607901 -5.50286829 7.56385939 -9.125 10.875 C-14.88772094 17.59286805 -15.53632006 26.93635475 -16.75 35.375 C-15.92822266 34.83359375 -15.92822266 34.83359375 -15.08984375 34.28125 C-7.19836785 29.66184948 -0.65971078 29.84041735 8.25 30.375 C8.25 31.035 8.25 31.695 8.25 32.375 C8.971875 32.436875 9.69375 32.49875 10.4375 32.5625 C15.29870028 33.96684675 18.61594629 38.16051406 21.25 42.375 C21.9375 45.125 21.9375 45.125 22.25 47.375 C23.9 47.375 25.55 47.375 27.25 47.375 C27.25 50.015 27.25 52.655 27.25 55.375 C17.35 55.375 7.45 55.375 -2.75 55.375 C-2.75 52.735 -2.75 50.095 -2.75 47.375 C-1.76 47.375 -0.77 47.375 0.25 47.375 C-0.8145852 44.76556942 -0.8145852 44.76556942 -2.75 42.375 C-6.86260027 41.55247995 -8.50259652 42.22839053 -12.125 44.375 C-12.99125 45.035 -13.8575 45.695 -14.75 46.375 C-13.80585454 53.0617714 -12.71903542 59.62249156 -11.125 66.1875 C-9.38173703 73.95772239 -9.47268536 81.4663972 -9.75 89.375 C-6.45 89.375 -3.15 89.375 0.25 89.375 C0.25 88.715 0.25 88.055 0.25 87.375 C1.136875 86.92125 2.02375 86.4675 2.9375 86 C8.00612221 82.89381347 9.35635592 76.70401609 11.25 71.375 C9.6 71.375 7.95 71.375 6.25 71.375 C6.25 69.065 6.25 66.755 6.25 64.375 C16.81 64.375 27.37 64.375 38.25 64.375 C38.25 66.685 38.25 68.995 38.25 71.375 C36.6 71.375 34.95 71.375 33.25 71.375 C33.13011719 71.95636719 33.01023437 72.53773438 32.88671875 73.13671875 C30.20582021 82.56098172 21.51854896 91.51886807 13.25 96.375 C9.75 97.25 9.75 97.25 7.25 97.375 C7.25 98.035 7.25 98.695 7.25 99.375 C3.89600151 99.4628954 0.5423036 99.51568879 -2.8125 99.5625 C-3.75544922 99.58763672 -4.69839844 99.61277344 -5.66992188 99.63867188 C-11.51642736 99.69978517 -15.56287544 99.11604641 -20.75 96.375 C-20.75386719 95.35792969 -20.75386719 95.35792969 -20.7578125 94.3203125 C-21.08030072 86.55909599 -23.32139553 81.67137134 -27.75 75.375 C-29.75 72.375 -29.75 72.375 -29.75 69.375 C-30.74 69.045 -31.73 68.715 -32.75 68.375 C-33.1221042 67.05196283 -33.45630173 65.71762065 -33.75 64.375 C-34.41 64.045 -35.07 63.715 -35.75 63.375 C-41.70969713 49.8302338 -41.02306867 34.40966774 -35.73046875 20.7421875 C-33.29196113 15.64598057 -33.29196113 15.64598057 -30.75 14.375 C-30.31171875 13.60542969 -29.8734375 12.83585938 -29.421875 12.04296875 C-27.5746715 9.09521177 -25.84803727 7.65547606 -23 5.6875 C-22.18015625 5.10613281 -21.3603125 4.52476562 -20.515625 3.92578125 C-13.90820814 0.22077491 -7.38791676 -0.01006357 0 0 Z " fill="#4C2C2C" transform="translate(614.75,577.625)"/>
<path d="M0 0 C0 0.66 0 1.32 0 2 C0.59425781 2.24878906 1.18851563 2.49757813 1.80078125 2.75390625 C4.31884001 4.18065713 5.49732092 5.60427079 7.1875 7.9375 C7.69667969 8.62714844 8.20585938 9.31679688 8.73046875 10.02734375 C10 12 10 12 11 15 C12.65 15.33 14.3 15.66 16 16 C16 18.31 16 20.62 16 23 C6.1 23 -3.8 23 -14 23 C-14 20.69 -14 18.38 -14 16 C-13.01 16 -12.02 16 -11 16 C-13.83716913 9.59122622 -13.83716913 9.59122622 -19 5 C-19 4.34 -19 3.68 -19 3 C-22.3 3 -25.6 3 -29 3 C-29.33 3.66 -29.66 4.32 -30 5 C-30.78375 5.680625 -31.5675 6.36125 -32.375 7.0625 C-38.39464119 13.79876514 -38.57335595 22.30528851 -39 31 C-38.071875 30.505 -37.14375 30.01 -36.1875 29.5 C-33 28 -33 28 -30 28 C-30 27.34 -30 26.68 -30 26 C-24.72 26 -19.44 26 -14 26 C-14 26.66 -14 27.32 -14 28 C-13.278125 28.061875 -12.55625 28.12375 -11.8125 28.1875 C-7.20637209 29.51815917 -4.88765093 32.70022543 -2.25 36.5625 C-1.13013958 38.74622782 -0.44475453 40.59832556 0 43 C1.65 43 3.3 43 5 43 C5 45.64 5 48.28 5 51 C-4.9 51 -14.8 51 -25 51 C-25 48.36 -25 45.72 -25 43 C-24.01 43 -23.02 43 -22 43 C-24.25064952 38.62045033 -24.25064952 38.62045033 -28.3125 36.3125 C-32.19210187 37.30495629 -34.91569533 39.5112239 -38 42 C-37.05849593 48.66806414 -35.97676946 55.20627834 -34.375 61.75 C-32.55631261 69.8472715 -32.73054133 77.75656067 -33 86 C-29.37 85.67 -25.74 85.34 -22 85 C-22 84.34 -22 83.68 -22 83 C-21.113125 82.54625 -20.22625 82.0925 -19.3125 81.625 C-14.24387779 78.51881347 -12.89364408 72.32901609 -11 67 C-12.65 67 -14.3 67 -16 67 C-16 64.69 -16 62.38 -16 60 C-5.44 60 5.12 60 16 60 C16 62.31 16 64.62 16 67 C14.35 67 12.7 67 11 67 C10.88011719 67.58136719 10.76023437 68.16273438 10.63671875 68.76171875 C7.95582021 78.18598172 -0.73145104 87.14386807 -9 92 C-12.5 92.875 -12.5 92.875 -15 93 C-15 93.66 -15 94.32 -15 95 C-22.26 95 -29.52 95 -37 95 C-37 94.34 -37 93.68 -37 93 C-38.65 93 -40.3 93 -42 93 C-42.12375 92.360625 -42.2475 91.72125 -42.375 91.0625 C-42.58125 90.051875 -42.7875 89.04125 -43 88 C-43.165 86.700625 -43.33 85.40125 -43.5 84.0625 C-45.22612775 76.18292447 -51.00263034 69.22856306 -55.59765625 62.74609375 C-62.75255533 52.26537003 -63.15259717 39.56190623 -61.25 27.375 C-59.85518143 20.54929212 -58.04260245 13.94642202 -53 9 C-52.67 8.01 -52.34 7.02 -52 6 C-46.62857143 2 -46.62857143 2 -44 2 C-44 1.34 -44 0.68 -44 0 C-31.5141791 -6.69096622 -12.4858209 -6.69096622 0 0 Z " fill="#4C2C2C" transform="translate(870,582)"/>
<path d="M0 0 C0 0.66 0 1.32 0 2 C0.59425781 2.24878906 1.18851562 2.49757813 1.80078125 2.75390625 C4.31884001 4.18065713 5.49732092 5.60427079 7.1875 7.9375 C7.69667969 8.62714844 8.20585937 9.31679688 8.73046875 10.02734375 C10 12 10 12 11 15 C12.65 15.33 14.3 15.66 16 16 C16 18.31 16 20.62 16 23 C6.1 23 -3.8 23 -14 23 C-14 20.69 -14 18.38 -14 16 C-13.01 16 -12.02 16 -11 16 C-13.83716913 9.59122622 -13.83716913 9.59122622 -19 5 C-19 4.34 -19 3.68 -19 3 C-22.3 3 -25.6 3 -29 3 C-29.33 3.66 -29.66 4.32 -30 5 C-30.78375 5.680625 -31.5675 6.36125 -32.375 7.0625 C-38.39464119 13.79876514 -38.57335595 22.30528851 -39 31 C-38.071875 30.505 -37.14375 30.01 -36.1875 29.5 C-33 28 -33 28 -30 28 C-30 27.34 -30 26.68 -30 26 C-12.95931478 24.98968269 -12.95931478 24.98968269 -6 31 C-2.61910625 34.585054 -0.45546059 37.98993351 0 43 C1.65 43 3.3 43 5 43 C5 45.64 5 48.28 5 51 C-4.9 51 -14.8 51 -25 51 C-25 48.36 -25 45.72 -25 43 C-24.01 43 -23.02 43 -22 43 C-24.25064952 38.62045033 -24.25064952 38.62045033 -28.3125 36.3125 C-32.19210187 37.30495629 -34.91569533 39.5112239 -38 42 C-37.05849593 48.66806414 -35.97676946 55.20627834 -34.375 61.75 C-32.55631261 69.8472715 -32.73054133 77.75656067 -33 86 C-29.37 85.67 -25.74 85.34 -22 85 C-22 84.34 -22 83.68 -22 83 C-21.113125 82.54625 -20.22625 82.0925 -19.3125 81.625 C-14.24387779 78.51881347 -12.89364408 72.32901609 -11 67 C-12.65 67 -14.3 67 -16 67 C-16 64.69 -16 62.38 -16 60 C-5.44 60 5.12 60 16 60 C16 62.31 16 64.62 16 67 C14.35 67 12.7 67 11 67 C10.88011719 67.58136719 10.76023437 68.16273438 10.63671875 68.76171875 C7.95582021 78.18598172 -0.73145104 87.14386807 -9 92 C-12.5 92.875 -12.5 92.875 -15 93 C-15 93.66 -15 94.32 -15 95 C-22.26 95 -29.52 95 -37 95 C-37 94.34 -37 93.68 -37 93 C-38.65 93 -40.3 93 -42 93 C-42.12375 92.360625 -42.2475 91.72125 -42.375 91.0625 C-42.58125 90.051875 -42.7875 89.04125 -43 88 C-43.165 86.700625 -43.33 85.40125 -43.5 84.0625 C-44.9427566 77.46546792 -49.20293559 72.13939737 -52.92089844 66.63330078 C-61.18000805 54.13252176 -63.63727916 42.2690868 -61.25 27.375 C-59.85518143 20.54929212 -58.04260245 13.94642202 -53 9 C-52.67 8.01 -52.34 7.02 -52 6 C-46.62857143 2 -46.62857143 2 -44 2 C-44 1.34 -44 0.68 -44 0 C-31.5141791 -6.69096622 -12.4858209 -6.69096622 0 0 Z " fill="#4C2C2C" transform="translate(481,582)"/>
<path d="M0 0 C4.05532637 2.18121438 6.64767114 5.19618705 9.45703125 8.79296875 C10.98959118 10.76971862 10.98959118 10.76971862 14 11.5 C15.84610532 11.58239169 17.69505164 11.60743359 19.54296875 11.59765625 C21.15268555 11.59282227 21.15268555 11.59282227 22.79492188 11.58789062 C23.91447266 11.57951172 25.03402344 11.57113281 26.1875 11.5625 C27.31865234 11.55798828 28.44980469 11.55347656 29.61523438 11.54882812 C32.41020927 11.53703498 35.2050782 11.5205765 38 11.5 C37.40324648 14.61967206 36.71517984 17.66874882 35.84375 20.72265625 C30.75773777 35.63863911 30.75773777 35.63863911 32.4375 50.4375 C35.25538084 52.70555044 38.15181693 54.59760259 41.29296875 56.38671875 C43 57.5 43 57.5 44 59.5 C44.06950541 61.04023996 44.08452357 62.58334988 44.0625 64.125 C44.05347656 64.94226563 44.04445313 65.75953125 44.03515625 66.6015625 C44.02355469 67.22804688 44.01195312 67.85453125 44 68.5 C39.61638692 69.78929796 37.2452221 68.94337551 33 67.5 C25.76302903 66.34208464 19.89443969 69.59540301 14 73.5 C8.72751529 78.29182341 4.4778808 83.56960813 0.75 89.625 C-1.18707189 92.6783506 -1.64178084 93.35671234 -5.125 94.75 C-8.58271856 94.44932882 -9.53291736 93.91355619 -12 91.5 C-13.01309181 89.0548039 -13.82894856 86.77420733 -14.5625 84.25 C-14.95652825 82.95217758 -15.35365803 81.65529269 -15.75390625 80.359375 C-15.94968262 79.72080566 -16.14545898 79.08223633 -16.34716797 78.42431641 C-17.01558429 76.45406305 -17.81280649 74.59119579 -18.66796875 72.6953125 C-20.08682642 69.29171844 -20.20838679 67.92376256 -19 64.5 C-17.26394487 62.76394487 -14.79450504 62.84388018 -12.4375 62.4375 C-11.42558594 62.26089844 -10.41367187 62.08429688 -9.37109375 61.90234375 C-8.19740234 61.70318359 -8.19740234 61.70318359 -7 61.5 C-9.48690724 56.84530193 -12.05430405 52.34006896 -15.0625 48 C-21.83543152 38.01516281 -24.00057406 28.53430166 -23 16.5 C-21.36534433 9.74116465 -18.98855737 3.38826568 -13.1875 -0.8125 C-8.50548756 -2.28398962 -4.44785963 -1.94809356 0 0 Z " fill="#F96A3A" transform="translate(437,255.5)"/>
<path d="M0 0 C0.89009766 -0.01998047 1.78019531 -0.03996094 2.69726562 -0.06054688 C8.86473298 -0.05604179 14.3682525 0.90559125 19.5625 4.4375 C20.0575 5.9225 20.0575 5.9225 20.5625 7.4375 C21.17738281 7.70949219 21.79226563 7.98148438 22.42578125 8.26171875 C25.49905554 9.95286237 26.24988402 12.12250884 27.75 15.25 C28.25917969 16.28769531 28.76835938 17.32539062 29.29296875 18.39453125 C30.42943977 21.11856487 31.11668408 23.53163959 31.5625 26.4375 C33.5425 26.9325 33.5425 26.9325 35.5625 27.4375 C35.5625 30.0775 35.5625 32.7175 35.5625 35.4375 C25.0025 35.4375 14.4425 35.4375 3.5625 35.4375 C3.5625 32.7975 3.5625 30.1575 3.5625 27.4375 C5.2125 27.4375 6.8625 27.4375 8.5625 27.4375 C7.59643083 21.68654706 6.6667279 16.48187033 3.5625 11.4375 C0.47076248 9.89163124 -2.03179552 10.14390479 -5.4375 10.4375 C-9.24564587 12.87048208 -10.58939677 16.38646058 -11.8359375 20.578125 C-15.38524874 37.44887713 -11.9663533 53.90316469 -8.76782227 70.51660156 C-7.45933965 77.58954826 -6.94830631 84.23548176 -7.4375 91.4375 C-4.69336309 91.08925928 -2.90478668 90.83881679 -0.77734375 89.01171875 C5.82789539 80.12500426 8.13183801 70.37631461 8.5625 59.4375 C6.9125 59.4375 5.2625 59.4375 3.5625 59.4375 C3.5625 57.1275 3.5625 54.8175 3.5625 52.4375 C14.1225 52.4375 24.6825 52.4375 35.5625 52.4375 C35.5625 54.7475 35.5625 57.0575 35.5625 59.4375 C34.2425 59.4375 32.9225 59.4375 31.5625 59.4375 C31.52511719 60.0665625 31.48773437 60.695625 31.44921875 61.34375 C30.55755293 72.95288937 26.34963122 82.36341369 17.5546875 90.234375 C6.65526916 99.12100877 -1.77367967 100.00225032 -15.4375 99.4375 C-15.4375 98.7775 -15.4375 98.1175 -15.4375 97.4375 C-16.0975 97.4375 -16.7575 97.4375 -17.4375 97.4375 C-17.458125 96.365 -17.47875 95.2925 -17.5 94.1875 C-18.49281647 86.17405277 -24.0953594 79.32280473 -28.625 72.875 C-37.01956527 60.53005108 -38.13359999 44.62989995 -35.8125 30.1875 C-33.31992132 19.72220511 -27.43729686 9.50713044 -18.4375 3.4375 C-12.13304618 0.59349083 -6.87722648 -0.05454181 0 0 Z " fill="#4C2C2C" transform="translate(693.4375,577.5625)"/>
<path d="M0 0 C1.68029297 -0.03673828 1.68029297 -0.03673828 3.39453125 -0.07421875 C11.71991117 -0.10336244 19.3654751 0.72392293 25.5625 6.7421875 C26.3359375 7.98355469 26.3359375 7.98355469 27.125 9.25 C27.66125 10.07242188 28.1975 10.89484375 28.75 11.7421875 C32.90374064 19.69565679 33.6622132 28.64263353 31.33203125 37.33203125 C30.38081749 39.76291086 29.32686649 42.05931586 28.125 44.375 C27.67125 45.344375 27.2175 46.31375 26.75 47.3125 C24.56480515 50.08601654 22.39302242 51.10780763 19.125 52.375 C17.805 52.375 16.485 52.375 15.125 52.375 C15.125 53.035 15.125 53.695 15.125 54.375 C13.145 54.375 11.165 54.375 9.125 54.375 C9.125 53.715 9.125 53.055 9.125 52.375 C8.196875 52.230625 7.26875 52.08625 6.3125 51.9375 C3.125 51.375 3.125 51.375 0.125 50.375 C-6.61003715 57.84511834 -6.77261995 65.36586897 -6.75 74.9375 C-6.76816019 76.34183399 -6.78897323 77.74613629 -6.8125 79.15039062 C-6.85935645 82.5591975 -6.87946254 85.96593868 -6.875 89.375 C-3.575 89.375 -0.275 89.375 3.125 89.375 C3.125 91.685 3.125 93.995 3.125 96.375 C-9.745 96.375 -22.615 96.375 -35.875 96.375 C-35.875 94.065 -35.875 91.755 -35.875 89.375 C-32.905 89.375 -29.935 89.375 -26.875 89.375 C-26.88023682 88.70299561 -26.88547363 88.03099121 -26.89086914 87.33862305 C-26.94782079 78.62213655 -26.93049037 69.90694304 -26.88745117 61.19049072 C-26.87871855 59.21584756 -26.87188326 57.24119553 -26.86645508 55.26654053 C-26.84761819 48.41716906 -26.80029711 41.5688294 -26.72140503 34.71987915 C-26.69881746 32.4082412 -26.68490956 30.096502 -26.67971802 27.78475952 C-26.67049564 24.49903128 -26.62982898 21.21505145 -26.58203125 17.9296875 C-26.58595886 16.93817184 -26.58988647 15.94665619 -26.59393311 14.9250946 C-26.4953388 10.29806403 -26.40485316 8.07672299 -23.55004883 4.29589844 C-16.64361117 -0.6634747 -8.16117942 0.00932706 0 0 Z M-4.1875 11 C-6.76066518 16.14633036 -7.00082858 20.95762765 -6.97265625 26.6484375 C-6.96943359 27.80214844 -6.96621094 28.95585938 -6.96289062 30.14453125 C-6.95451172 31.33433594 -6.94613281 32.52414062 -6.9375 33.75 C-6.93298828 34.96300781 -6.92847656 36.17601562 -6.92382812 37.42578125 C-6.91208354 40.40890507 -6.8956584 43.39192679 -6.875 46.375 C-4.8504262 44.44245228 -3.45394208 42.74341312 -1.875 40.375 C-0.781875 40.601875 0.31125 40.82875 1.4375 41.0625 C4.94181021 41.71648955 4.94181021 41.71648955 6.9375 40.3125 C11.21140347 33.33928908 10.90071471 24.97953878 9.8125 17.1171875 C8.87128795 13.2346878 7.40912518 10.65564248 4.125 8.375 C-0.13874268 7.48672027 -1.27301783 7.69166889 -4.1875 11 Z " fill="#4C2C2C" transform="translate(535.875,577.625)"/>
<path d="M0 0 C1.16604767 -0.00503792 1.16604767 -0.00503792 2.35565186 -0.01017761 C4.93242986 -0.01969843 7.50914299 -0.02163117 10.0859375 -0.02270508 C11.87190783 -0.02591644 13.65787789 -0.02928041 15.44384766 -0.03279114 C19.18978485 -0.03878493 22.93569897 -0.04063074 26.68164062 -0.04003906 C31.49054943 -0.03993733 36.29931096 -0.05360031 41.10818481 -0.07081127 C44.79696335 -0.08190757 48.48570599 -0.08395902 52.17449951 -0.08342934 C53.94798288 -0.08461262 55.72146707 -0.0890538 57.49493408 -0.0967617 C59.97068734 -0.10651569 62.44611697 -0.10370212 64.921875 -0.09765625 C65.65960144 -0.10327576 66.39732788 -0.10889526 67.15740967 -0.11468506 C72.23262055 -0.08305328 72.23262055 -0.08305328 74.4609375 2.14526367 C74.67992294 7.75546202 73.37403145 12.7492795 71.22265625 17.86010742 C69.86870816 21.92195168 69.45032248 26.15535269 68.890625 30.38745117 C68.4609375 33.14526367 68.4609375 33.14526367 67.4609375 35.14526367 C65.8109375 35.14526367 64.1609375 35.14526367 62.4609375 35.14526367 C59.99777697 28.68103019 57.87963604 22.31168677 56.3671875 15.55541992 C55.24718304 12.57678736 53.962138 11.09819378 51.4609375 9.14526367 C50.1409375 9.14526367 48.8209375 9.14526367 47.4609375 9.14526367 C47.4609375 8.48526367 47.4609375 7.82526367 47.4609375 7.14526367 C45.4809375 7.14526367 43.5009375 7.14526367 41.4609375 7.14526367 C41.4609375 34.20526367 41.4609375 61.26526367 41.4609375 89.14526367 C44.7609375 89.14526367 48.0609375 89.14526367 51.4609375 89.14526367 C51.4609375 91.45526367 51.4609375 93.76526367 51.4609375 96.14526367 C38.5909375 96.14526367 25.7209375 96.14526367 12.4609375 96.14526367 C12.4609375 93.83526367 12.4609375 91.52526367 12.4609375 89.14526367 C15.7609375 89.14526367 19.0609375 89.14526367 22.4609375 89.14526367 C22.4609375 62.08526367 22.4609375 35.02526367 22.4609375 7.14526367 C21.1409375 7.14526367 19.8209375 7.14526367 18.4609375 7.14526367 C18.4609375 7.80526367 18.4609375 8.46526367 18.4609375 9.14526367 C16.8521875 9.36182617 16.8521875 9.36182617 15.2109375 9.58276367 C12.77675739 10.29436874 11.71846419 10.79196924 10.2109375 12.86010742 C7.7423318 18.19268145 6.46226803 23.80967467 5.26953125 29.54370117 C4.42406812 32.26388688 3.73946687 33.46817353 1.4609375 35.14526367 C-0.86395131 34.86345897 -2.44799085 34.1907995 -4.5390625 33.14526367 C-4.91385474 31.03333914 -5.18735424 28.90317197 -5.4140625 26.77026367 C-6.02111321 21.91879339 -6.89264823 17.73898139 -8.7265625 13.20776367 C-10.54470897 8.63198241 -10.9786171 5.87522878 -9.5390625 1.14526367 C-6.49832721 -0.37510397 -3.33586787 -0.00204923 0 0 Z " fill="#4C2C2C" transform="translate(897.5390625,577.854736328125)"/>
<path d="M0 0 C6.81495791 3.06021995 11.51302543 7.09608609 16 13 C14.17138953 17.96489005 10.46799556 19.00333358 5.921875 21.14453125 C3.09126505 22.94204426 2.19999247 24.03283563 0.34375 26.6796875 C-1.57440234 29.04003557 -2.49517414 29.89250538 -5.50292969 30.53295898 C-8.44665602 30.61665117 -11.31212017 30.51333163 -14.25 30.3125 C-16.23400017 30.21711538 -18.21839281 30.12947695 -20.203125 30.05078125 C-21.07614258 29.99575439 -21.94916016 29.94072754 -22.84863281 29.8840332 C-25.21681202 29.77146451 -25.21681202 29.77146451 -27 32 C-26.79560228 34.25786863 -26.79560228 34.25786863 -26.125 36.75 C-25.25569689 40.59499451 -24.79137781 44.03617837 -25 48 C-30.0703728 48.54325423 -32.92310554 48.48562128 -37.0625 45.375 C-38.39454954 44.27321723 -39.70357589 43.14348842 -41 42 C-41.58740967 41.60603027 -42.17481934 41.21206055 -42.7800293 40.80615234 C-45.65891633 38.73387997 -47.66866614 37.21200814 -48.62670898 33.70751953 C-48.83330708 31.06337035 -48.8089574 28.52392816 -48.6875 25.875 C-48.68943359 24.98167969 -48.69136719 24.08835938 -48.69335938 23.16796875 C-48.55388033 16.73269406 -48.55388033 16.73269406 -46.37939453 13.85620117 C-43.44339881 11.5657871 -40.87419911 10.75916514 -37.29296875 9.74609375 C-36.64934891 9.55910416 -36.00572906 9.37211456 -35.34260559 9.17945862 C-33.29421157 8.58645065 -31.24139785 8.01112416 -29.1875 7.4375 C-27.14530325 6.85736619 -25.10429917 6.27344031 -23.06452942 5.68482971 C-21.20683051 5.15026144 -19.3460454 4.62645244 -17.48510742 4.10327148 C-14.95799827 3.30327105 -12.67188283 2.46430195 -10.26293945 1.40258789 C-6.32766798 -0.28900467 -4.25088578 -0.6484402 0 0 Z " fill="#4E2C2C" transform="translate(579,228)"/>
</svg>
