<svg xmlns="http://www.w3.org/2000/svg" width="554" height="554" viewBox="0 0 554 554" version="1.1"><path d="M 284.327 20.677 C 275.293 27.559, 205.515 89.794, 201.942 94.156 C 190.461 108.172, 181.533 126.708, 177.212 145.500 C 173.870 160.032, 168.867 205.656, 168.493 225 C 168.044 248.276, 163.773 262.963, 153.818 275.466 C 151.209 278.743, 150.012 281.140, 150.320 282.473 C 150.578 283.588, 151.822 288.100, 153.085 292.500 C 155.079 299.445, 155.375 302.675, 155.328 317 C 155.284 330.731, 154.916 334.759, 153.139 341 C 151.964 345.125, 149.638 353.838, 147.970 360.362 C 146.302 366.886, 143.158 377.545, 140.984 384.048 C 137.354 394.907, 134.881 400.945, 123.045 427.844 C 113.290 450.012, 113.560 463.903, 123.978 475.881 C 126.914 479.256, 129.523 481.810, 129.777 481.557 C 130.030 481.303, 128.947 477.587, 127.369 473.298 C 123.348 462.369, 123.330 451.934, 127.317 443.784 C 132.270 433.660, 147.230 421.973, 157.333 420.333 C 162.114 419.558, 162.044 420.737, 156.928 427.210 C 151.524 434.046, 149.306 438.582, 147.382 446.729 C 144.504 458.912, 147.284 481.614, 153.308 495.114 C 155.712 500.502, 159.455 504.878, 160.643 503.690 C 160.990 503.343, 160.499 497.508, 159.551 490.723 C 157.688 477.391, 158.213 470.568, 161.661 463.302 C 164.709 456.878, 174.192 449.092, 177.446 450.341 C 178.192 450.627, 178.944 453.432, 179.276 457.163 C 179.930 464.517, 182.712 474.296, 183.934 473.541 C 184.396 473.255, 185.063 471.477, 185.417 469.590 C 186.864 461.878, 189.251 455.784, 192.093 452.547 C 197.479 446.413, 205.405 445.531, 211.477 450.391 C 215.814 453.862, 215.474 458.252, 209.960 470 C 205.653 479.175, 205.505 479.808, 205.633 488.500 C 205.738 495.583, 206.423 499.523, 208.851 507 C 211.714 515.816, 212.407 516.966, 218.468 522.971 L 225 529.442 225 521.273 C 225 506.708, 230.987 492.827, 244.743 475.500 C 251.995 466.365, 258.111 460, 259.636 460 C 260.308 460, 261.415 462.496, 262.098 465.546 C 262.780 468.596, 263.700 471.315, 264.143 471.588 C 265.800 472.612, 281.684 438.763, 285.438 426.206 C 291.223 406.858, 292.160 400.524, 291.828 383 L 291.534 367.500 300.017 366.841 C 308.616 366.173, 318.854 363.086, 320.986 360.517 C 321.628 359.743, 322.006 358.073, 321.827 356.805 C 321.504 354.526, 321.326 354.497, 306.070 354.223 C 295.911 354.041, 290.145 353.536, 289.193 352.745 C 288.077 351.819, 287.871 349.936, 288.292 344.522 C 289.183 333.054, 287.111 333.999, 311.357 334.009 L 332.500 334.019 337.941 337.139 C 348.943 343.447, 356.005 353.057, 358.133 364.617 C 360.373 376.784, 359.973 375.757, 361.602 373.530 C 364.281 369.866, 365.469 363.539, 365.457 353 C 365.446 343.600, 365.169 341.976, 362.809 337.500 C 356.018 324.620, 343.364 318.364, 316.187 314.453 C 309.965 313.557, 299.165 312.526, 292.187 312.162 L 279.500 311.500 279 272.500 L 278.500 233.500 260.285 231.451 C 250.266 230.324, 241.890 229.199, 241.670 228.951 C 238.055 224.864, 238.123 217.723, 241.813 214.033 C 246.845 209.001, 249.866 208.821, 323.267 209.175 C 376.676 209.433, 390.963 209.236, 392.750 208.215 C 399.581 204.313, 390.345 184.352, 378.221 176.814 C 374.586 174.553, 373.819 174.493, 345.003 174.180 L 315.506 173.861 312.276 171.397 C 308.019 168.150, 304.600 162.150, 301.091 151.771 C 296.550 138.335, 294.820 136, 289.406 136 C 286.744 136, 284.916 136.958, 281.407 140.192 C 275.285 145.836, 272.539 150.877, 270.072 161 C 268.285 168.335, 267.458 170.014, 264.039 173.250 C 259.398 177.643, 255.313 178.289, 254.558 174.750 C 254.294 173.512, 253.843 164.625, 253.555 155 C 253.267 145.375, 252.752 130.300, 252.411 121.500 C 251.698 103.128, 253.060 92.587, 258.080 77.602 C 263.487 61.464, 269.907 50.034, 287.524 25.186 C 289.986 21.713, 292 18.451, 292 17.936 C 292 16.036, 289.023 17.099, 284.327 20.677 M 343.433 226.574 C 341.196 227.880, 333.177 230.494, 325.613 232.383 C 318.048 234.272, 310.991 236.603, 309.930 237.564 C 308.264 239.071, 308 240.704, 308 249.509 L 308 259.708 315.071 265.854 C 321.412 271.366, 322.593 272, 326.512 272 C 328.915 272, 331.133 271.594, 331.439 271.099 C 331.745 270.603, 331.066 267.186, 329.929 263.504 C 327.927 257.025, 327.919 256.746, 329.681 254.782 C 331.366 252.904, 332.260 252.803, 341.793 253.411 L 352.085 254.069 354.879 251.275 C 356.416 249.738, 357.859 247.972, 358.087 247.350 C 358.314 246.729, 361.538 244.849, 365.250 243.173 C 373.495 239.451, 373.727 238.122, 367.250 231.759 C 359.118 223.770, 351.193 222.045, 343.433 226.574 M 200.365 251.860 C 195.631 254.836, 191.795 263.515, 191.214 272.561 C 190.536 283.132, 193.450 291.639, 201.668 303.085 C 205.151 307.935, 208 312.366, 208 312.932 C 208 314.145, 204.781 314.914, 200.303 314.770 C 193.520 314.551, 192.677 318.665, 197.593 328 C 198.896 330.475, 200.445 335.052, 201.036 338.171 C 201.990 343.215, 202.452 343.962, 205.204 344.921 C 210.130 346.639, 210.697 346.342, 215.095 339.750 C 227.075 321.791, 239.294 314.933, 250.978 319.608 C 256.454 321.799, 258 320.997, 258 315.966 C 258 310.317, 256.715 308.396, 251 305.500 C 245.627 302.777, 243.997 300.638, 244.005 296.316 C 244.015 290.862, 249.073 269.706, 251.021 266.970 C 252.794 264.481, 252.827 264.147, 251.353 263.582 C 250.455 263.237, 245.082 263.255, 239.414 263.621 C 227.614 264.384, 223.762 263.374, 221.454 258.911 C 217.607 251.472, 206.754 247.843, 200.365 251.860" stroke="none" fill="#4c2c2c" fill-rule="evenodd"/><path d="M 253.500 1.140 C 142.949 10.699, 49.046 85.156, 14.035 191.015 C -5.006 248.589, -3.896 314.523, 17.087 372.254 C 26.339 397.711, 44.217 429.363, 61.282 450.500 C 103.210 502.433, 161.737 537.282, 227.500 549.472 C 264.633 556.356, 306.640 555.124, 343.500 546.072 C 421.117 527.009, 488.014 474.027, 523.808 403.268 C 541.419 368.452, 549.965 337.778, 553.611 296.295 C 555.379 276.166, 554.804 260.925, 551.374 237 C 539.335 153.040, 488.863 79.356, 413.764 36.105 C 366.595 8.939, 308.893 -3.650, 253.500 1.140 M 284.327 20.677 C 275.293 27.559, 205.515 89.794, 201.942 94.156 C 190.461 108.172, 181.533 126.708, 177.212 145.500 C 173.870 160.032, 168.867 205.656, 168.493 225 C 168.044 248.276, 163.773 262.963, 153.818 275.466 C 151.209 278.743, 150.012 281.140, 150.320 282.473 C 150.578 283.588, 151.822 288.100, 153.085 292.500 C 155.079 299.445, 155.375 302.675, 155.328 317 C 155.284 330.731, 154.916 334.759, 153.139 341 C 151.964 345.125, 149.638 353.838, 147.970 360.362 C 146.302 366.886, 143.158 377.545, 140.984 384.048 C 137.354 394.907, 134.881 400.945, 123.045 427.844 C 113.290 450.012, 113.560 463.903, 123.978 475.881 C 126.914 479.256, 129.523 481.810, 129.777 481.557 C 130.030 481.303, 128.947 477.587, 127.369 473.298 C 123.348 462.369, 123.330 451.934, 127.317 443.784 C 132.270 433.660, 147.230 421.973, 157.333 420.333 C 162.114 419.558, 162.044 420.737, 156.928 427.210 C 151.524 434.046, 149.306 438.582, 147.382 446.729 C 144.504 458.912, 147.284 481.614, 153.308 495.114 C 155.712 500.502, 159.455 504.878, 160.643 503.690 C 160.990 503.343, 160.499 497.508, 159.551 490.723 C 157.688 477.391, 158.213 470.568, 161.661 463.302 C 164.709 456.878, 174.192 449.092, 177.446 450.341 C 178.192 450.627, 178.944 453.432, 179.276 457.163 C 179.930 464.517, 182.712 474.296, 183.934 473.541 C 184.396 473.255, 185.063 471.477, 185.417 469.590 C 186.864 461.878, 189.251 455.784, 192.093 452.547 C 197.479 446.413, 205.405 445.531, 211.477 450.391 C 215.814 453.862, 215.474 458.252, 209.960 470 C 205.653 479.175, 205.505 479.808, 205.633 488.500 C 205.738 495.583, 206.423 499.523, 208.851 507 C 211.714 515.816, 212.407 516.966, 218.468 522.971 L 225 529.442 225 521.273 C 225 506.708, 230.987 492.827, 244.743 475.500 C 251.995 466.365, 258.111 460, 259.636 460 C 260.308 460, 261.415 462.496, 262.098 465.546 C 262.780 468.596, 263.700 471.315, 264.143 471.588 C 265.800 472.612, 281.684 438.763, 285.438 426.206 C 291.223 406.858, 292.160 400.524, 291.828 383 L 291.534 367.500 300.017 366.841 C 308.616 366.173, 318.854 363.086, 320.986 360.517 C 321.628 359.743, 322.006 358.073, 321.827 356.805 C 321.504 354.526, 321.326 354.497, 306.070 354.223 C 295.911 354.041, 290.145 353.536, 289.193 352.745 C 288.077 351.819, 287.871 349.936, 288.292 344.522 C 289.183 333.054, 287.111 333.999, 311.357 334.009 L 332.500 334.019 337.941 337.139 C 348.943 343.447, 356.005 353.057, 358.133 364.617 C 360.373 376.784, 359.973 375.757, 361.602 373.530 C 364.281 369.866, 365.469 363.539, 365.457 353 C 365.446 343.600, 365.169 341.976, 362.809 337.500 C 356.018 324.620, 343.364 318.364, 316.187 314.453 C 309.965 313.557, 299.165 312.526, 292.187 312.162 L 279.500 311.500 279 272.500 L 278.500 233.500 260.285 231.451 C 250.266 230.324, 241.890 229.199, 241.670 228.951 C 238.055 224.864, 238.123 217.723, 241.813 214.033 C 246.845 209.001, 249.866 208.821, 323.267 209.175 C 376.676 209.433, 390.963 209.236, 392.750 208.215 C 399.581 204.313, 390.345 184.352, 378.221 176.814 C 374.586 174.553, 373.819 174.493, 345.003 174.180 L 315.506 173.861 312.276 171.397 C 308.019 168.150, 304.600 162.150, 301.091 151.771 C 296.550 138.335, 294.820 136, 289.406 136 C 286.744 136, 284.916 136.958, 281.407 140.192 C 275.285 145.836, 272.539 150.877, 270.072 161 C 268.285 168.335, 267.458 170.014, 264.039 173.250 C 259.398 177.643, 255.313 178.289, 254.558 174.750 C 254.294 173.512, 253.843 164.625, 253.555 155 C 253.267 145.375, 252.752 130.300, 252.411 121.500 C 251.698 103.128, 253.060 92.587, 258.080 77.602 C 263.487 61.464, 269.907 50.034, 287.524 25.186 C 289.986 21.713, 292 18.451, 292 17.936 C 292 16.036, 289.023 17.099, 284.327 20.677 M 343.433 226.574 C 341.196 227.880, 333.177 230.494, 325.613 232.383 C 318.048 234.272, 310.991 236.603, 309.930 237.564 C 308.264 239.071, 308 240.704, 308 249.509 L 308 259.708 315.071 265.854 C 321.412 271.366, 322.593 272, 326.512 272 C 328.915 272, 331.133 271.594, 331.439 271.099 C 331.745 270.603, 331.066 267.186, 329.929 263.504 C 327.927 257.025, 327.919 256.746, 329.681 254.782 C 331.366 252.904, 332.260 252.803, 341.793 253.411 L 352.085 254.069 354.879 251.275 C 356.416 249.738, 357.859 247.972, 358.087 247.350 C 358.314 246.729, 361.538 244.849, 365.250 243.173 C 373.495 239.451, 373.727 238.122, 367.250 231.759 C 359.118 223.770, 351.193 222.045, 343.433 226.574 M 200.365 251.860 C 195.631 254.836, 191.795 263.515, 191.214 272.561 C 190.536 283.132, 193.450 291.639, 201.668 303.085 C 205.151 307.935, 208 312.366, 208 312.932 C 208 314.145, 204.781 314.914, 200.303 314.770 C 193.520 314.551, 192.677 318.665, 197.593 328 C 198.896 330.475, 200.445 335.052, 201.036 338.171 C 201.990 343.215, 202.452 343.962, 205.204 344.921 C 210.130 346.639, 210.697 346.342, 215.095 339.750 C 227.075 321.791, 239.294 314.933, 250.978 319.608 C 256.454 321.799, 258 320.997, 258 315.966 C 258 310.317, 256.715 308.396, 251 305.500 C 245.627 302.777, 243.997 300.638, 244.005 296.316 C 244.015 290.862, 249.073 269.706, 251.021 266.970 C 252.794 264.481, 252.827 264.147, 251.353 263.582 C 250.455 263.237, 245.082 263.255, 239.414 263.621 C 227.614 264.384, 223.762 263.374, 221.454 258.911 C 217.607 251.472, 206.754 247.843, 200.365 251.860 M 0.360 277 C 0.360 282.225, 0.529 284.363, 0.735 281.750 C 0.941 279.137, 0.941 274.863, 0.735 272.250 C 0.529 269.637, 0.360 271.775, 0.360 277" stroke="none" fill="#fb6b3b" fill-rule="evenodd"/></svg>