<?xml version="1.0" encoding="UTF-8"?> <svg xmlns="http://www.w3.org/2000/svg" width="177" height="47" viewBox="0 0 177 47" fill="none"><path fill-rule="evenodd" clip-rule="evenodd" d="M13 0C11.6193 0 10.5 1.11929 10.5 2.5V29.5C10.5 30.8807 11.6193 32 13 32C14.3807 32 15.5 30.8807 15.5 29.5V2.5C15.5 1.11929 14.3807 0 13 0ZM0 8.5C0 7.11929 1.11929 6 2.5 6C3.88071 6 5 7.11929 5 8.5V23.5C5 24.8807 3.88071 26 2.5 26C1.11929 26 0 24.8807 0 23.5V8.5ZM21 8.5C21 7.11929 22.1193 6 23.5 6C24.8807 6 26 7.11929 26 8.5V23.5C26 24.8807 24.8807 26 23.5 26C22.1193 26 21 24.8807 21 23.5V8.5Z" fill="#FA6F3A"></path><path d="M47.1591 46L43.7386 41.4361H42.6548V46H41.1186V35.8182H42.6548V40.1186H43.157L47.005 35.8182H48.8793L44.8075 40.3771L49.0334 46H47.1591Z" fill="black"></path><path d="M63.1351 40.9091C63.1351 41.9962 62.9362 42.9309 62.5385 43.7131C62.1408 44.492 61.5956 45.0919 60.9029 45.5128C60.2135 45.9304 59.4296 46.1392 58.5513 46.1392C57.6697 46.1392 56.8825 45.9304 56.1898 45.5128C55.5004 45.0919 54.9568 44.4903 54.5591 43.7081C54.1614 42.9259 53.9625 41.9929 53.9625 40.9091C53.9625 39.822 54.1614 38.889 54.5591 38.1101C54.9568 37.3279 55.5004 36.728 56.1898 36.3104C56.8825 35.8894 57.6697 35.679 58.5513 35.679C59.4296 35.679 60.2135 35.8894 60.9029 36.3104C61.5956 36.728 62.1408 37.3279 62.5385 38.1101C62.9362 38.889 63.1351 39.822 63.1351 40.9091ZM61.6138 40.9091C61.6138 40.0805 61.4796 39.3828 61.2111 38.8161C60.9459 38.246 60.5814 37.8151 60.1173 37.5234C59.6566 37.2285 59.1346 37.081 58.5513 37.081C57.9646 37.081 57.441 37.2285 56.9803 37.5234C56.5196 37.8151 56.155 38.246 55.8865 38.8161C55.6214 39.3828 55.4888 40.0805 55.4888 40.9091C55.4888 41.7377 55.6214 42.437 55.8865 43.0071C56.155 43.5739 56.5196 44.0047 56.9803 44.2997C57.441 44.5914 57.9646 44.7372 58.5513 44.7372C59.1346 44.7372 59.6566 44.5914 60.1173 44.2997C60.5814 44.0047 60.9459 43.5739 61.2111 43.0071C61.4796 42.437 61.6138 41.7377 61.6138 40.9091Z" fill="black"></path><path d="M69.3904 46V35.8182H70.9266V40.2429H76.0026V35.8182H77.5438V46H76.0026V41.5604H70.9266V46H69.3904Z" fill="black"></path><path d="M92.5777 39.1293H91.0266C90.9669 38.7978 90.8559 38.5062 90.6935 38.2543C90.5311 38.0024 90.3322 37.7886 90.0969 37.6129C89.8616 37.4373 89.5981 37.3047 89.3064 37.2152C89.018 37.1257 88.7115 37.081 88.3867 37.081C87.8 37.081 87.2747 37.2285 86.8107 37.5234C86.35 37.8184 85.9854 38.251 85.7169 38.821C85.4518 39.3911 85.3192 40.0871 85.3192 40.9091C85.3192 41.7377 85.4518 42.437 85.7169 43.0071C85.9854 43.5772 86.3516 44.0081 86.8156 44.2997C87.2796 44.5914 87.8017 44.7372 88.3817 44.7372C88.7032 44.7372 89.0081 44.6941 89.2965 44.608C89.5881 44.5185 89.8516 44.3876 90.0869 44.2152C90.3223 44.0429 90.5211 43.8324 90.6835 43.5838C90.8492 43.3319 90.9636 43.0436 91.0266 42.7188L92.5777 42.7237C92.4948 43.2242 92.3341 43.6849 92.0955 44.1058C91.8601 44.5234 91.5569 44.8847 91.1857 45.1896C90.8178 45.4912 90.3968 45.7249 89.9229 45.8906C89.4489 46.0564 88.9319 46.1392 88.3717 46.1392C87.4901 46.1392 86.7046 45.9304 86.0152 45.5128C85.3258 45.0919 84.7823 44.4903 84.3845 43.7081C83.9901 42.9259 83.7929 41.9929 83.7929 40.9091C83.7929 39.822 83.9918 38.889 84.3895 38.1101C84.7872 37.3279 85.3308 36.728 86.0202 36.3104C86.7096 35.8894 87.4934 35.679 88.3717 35.679C88.912 35.679 89.4158 35.7569 89.8831 35.9127C90.3537 36.0651 90.7763 36.2905 91.1509 36.5888C91.5254 36.8838 91.8353 37.245 92.0805 37.6726C92.3258 38.0968 92.4915 38.5824 92.5777 39.1293Z" fill="black"></path><path d="M99.5477 46H97.917L101.581 35.8182H103.356L107.02 46H105.389L102.511 37.6676H102.431L99.5477 46ZM99.8211 42.0128H105.111V43.3054H99.8211V42.0128Z" fill="black"></path><path d="M112.06 46V44.6676L112.358 44.6577C112.762 44.6477 113.081 44.5102 113.313 44.245C113.548 43.9799 113.719 43.5523 113.825 42.9624C113.934 42.3724 114.007 41.5852 114.043 40.6009L114.217 35.8182H120.656V46H119.139V37.1207H115.664L115.505 41.0085C115.462 42.099 115.353 43.0154 115.177 43.7578C115.001 44.4969 114.703 45.0554 114.282 45.4332C113.864 45.8111 113.269 46 112.497 46H112.06Z" fill="black"></path><path d="M126.731 37.1406V35.8182H134.611V37.1406H131.434V46H129.903V37.1406H126.731Z" fill="black"></path><path d="M140.692 35.8182H142.213V43.2955H142.308L147.488 35.8182H148.91V46H147.374V38.5327H147.279L142.109 46H140.692V35.8182Z" fill="black"></path><path d="M155.491 46V35.8182H157.027V40.2429H162.103V35.8182H163.644V46H162.103V41.5604H157.027V46H155.491Z" fill="black"></path><path d="M176.57 35.8182V37.1406H171.758V46H170.222V35.8182H176.57Z" fill="black"></path><path d="M40.3906 8H44.5625L48.9688 18.75H49.1562L53.5625 8H57.7344V24H54.4531V13.5859H54.3203L50.1797 23.9219H47.9453L43.8047 13.5469H43.6719V24H40.3906V8Z" fill="black"></path><path d="M64.5409 24.2266C63.7752 24.2266 63.0929 24.0938 62.494 23.8281C61.895 23.5573 61.4211 23.1589 61.0721 22.6328C60.7284 22.1016 60.5565 21.4401 60.5565 20.6484C60.5565 19.9818 60.6789 19.4219 60.9237 18.9688C61.1685 18.5156 61.5018 18.151 61.9237 17.875C62.3455 17.599 62.8247 17.3906 63.3612 17.25C63.9028 17.1094 64.4705 17.0104 65.0643 16.9531C65.7622 16.8802 66.3247 16.8125 66.7518 16.75C67.1789 16.6823 67.4888 16.5833 67.6815 16.4531C67.8742 16.3229 67.9705 16.1302 67.9705 15.875V15.8281C67.9705 15.3333 67.8143 14.9505 67.5018 14.6797C67.1945 14.4089 66.757 14.2734 66.1893 14.2734C65.5903 14.2734 65.1138 14.4063 64.7596 14.6719C64.4054 14.9323 64.1711 15.2604 64.0565 15.6563L60.9784 15.4063C61.1346 14.6771 61.4419 14.0469 61.9002 13.5156C62.3586 12.9792 62.9497 12.5677 63.6737 12.2812C64.4028 11.9896 65.2466 11.8438 66.2049 11.8438C66.8716 11.8438 67.5096 11.9219 68.119 12.0781C68.7336 12.2344 69.2778 12.4766 69.7518 12.8047C70.231 13.1328 70.6086 13.5547 70.8846 14.0703C71.1607 14.5807 71.2987 15.1927 71.2987 15.9063V24H68.1424V22.3359H68.0487C67.856 22.7109 67.5982 23.0417 67.2752 23.3281C66.9523 23.6094 66.5643 23.8307 66.1112 23.9922C65.658 24.1484 65.1346 24.2266 64.5409 24.2266ZM65.494 21.9297C65.9836 21.9297 66.4159 21.8333 66.7909 21.6406C67.1659 21.4427 67.4601 21.1771 67.6737 20.8438C67.8872 20.5104 67.994 20.1328 67.994 19.7109V18.4375C67.8898 18.5052 67.7466 18.5677 67.5643 18.625C67.3872 18.6771 67.1867 18.7266 66.9627 18.7734C66.7388 18.8151 66.5148 18.8542 66.2909 18.8906C66.0669 18.9219 65.8638 18.9505 65.6815 18.9766C65.2909 19.0339 64.9497 19.125 64.658 19.25C64.3664 19.375 64.1398 19.5443 63.9784 19.7578C63.8169 19.9661 63.7362 20.2266 63.7362 20.5391C63.7362 20.9922 63.9002 21.3385 64.2284 21.5781C64.5617 21.8125 64.9836 21.9297 65.494 21.9297Z" fill="black"></path><path d="M73.9157 14.6172V12H84.7907V14.6172H80.9235V24H77.7516V14.6172H73.9157Z" fill="black"></path><path d="M98.1023 12V24H94.9461V12H98.1023ZM96.5633 17.2656V19.8906C96.3081 20.0052 95.9904 20.1146 95.6102 20.2188C95.2299 20.3177 94.8315 20.3984 94.4148 20.4609C93.9982 20.5234 93.6076 20.5547 93.243 20.5547C91.519 20.5547 90.1622 20.2005 89.1727 19.4922C88.1831 18.7786 87.6883 17.6406 87.6883 16.0781V11.9844H90.8289V16.0781C90.8289 16.5417 90.907 16.9089 91.0633 17.1797C91.2247 17.4505 91.4799 17.6458 91.8289 17.7656C92.1831 17.8802 92.6544 17.9375 93.243 17.9375C93.7898 17.9375 94.3263 17.8802 94.8523 17.7656C95.3784 17.651 95.9487 17.4844 96.5633 17.2656Z" fill="black"></path><path d="M120.762 8V24H117.418V10.75H110.95V24H107.606V8H120.762Z" fill="black"></path><path d="M130.002 24.2344C128.789 24.2344 127.739 23.9766 126.854 23.4609C125.974 22.9401 125.294 22.2161 124.815 21.2891C124.336 20.3568 124.096 19.276 124.096 18.0469C124.096 16.8073 124.336 15.724 124.815 14.7969C125.294 13.8646 125.974 13.1406 126.854 12.625C127.739 12.1042 128.789 11.8438 130.002 11.8438C131.216 11.8438 132.263 12.1042 133.143 12.625C134.028 13.1406 134.711 13.8646 135.19 14.7969C135.669 15.724 135.909 16.8073 135.909 18.0469C135.909 19.276 135.669 20.3568 135.19 21.2891C134.711 22.2161 134.028 22.9401 133.143 23.4609C132.263 23.9766 131.216 24.2344 130.002 24.2344ZM130.018 21.6562C130.57 21.6562 131.031 21.5 131.401 21.1875C131.77 20.8698 132.049 20.4375 132.237 19.8906C132.429 19.3437 132.526 18.7214 132.526 18.0234C132.526 17.3255 132.429 16.7031 132.237 16.1562C132.049 15.6094 131.77 15.1771 131.401 14.8594C131.031 14.5417 130.57 14.3828 130.018 14.3828C129.461 14.3828 128.992 14.5417 128.612 14.8594C128.237 15.1771 127.953 15.6094 127.76 16.1562C127.573 16.7031 127.479 17.3255 127.479 18.0234C127.479 18.7214 127.573 19.3437 127.76 19.8906C127.953 20.4375 128.237 20.8698 128.612 21.1875C128.992 21.5 129.461 21.6562 130.018 21.6562Z" fill="black"></path><path d="M141.912 19.6094L146.233 12H149.514V24H146.342V16.3672L142.037 24H138.733V12H141.912V19.6094Z" fill="black"></path><path d="M161.193 16.6719V19.2891H154.928V16.6719H161.193ZM156.021 12V24H152.842V12H156.021ZM163.279 12V24H160.123V12H163.279Z" fill="black"></path><path d="M165.316 14.6172V12H176.191V14.6172H172.324V24H169.152V14.6172H165.316Z" fill="black"></path></svg> 