<svg xmlns="http://www.w3.org/2000/svg" width="554" height="660" viewBox="0 0 554 660" version="1.1"><path d="M 284.327 20.677 C 275.293 27.559, 205.515 89.794, 201.942 94.156 C 190.461 108.172, 181.533 126.708, 177.212 145.500 C 173.870 160.032, 168.867 205.656, 168.493 225 C 168.044 248.276, 163.773 262.963, 153.818 275.466 C 151.209 278.743, 150.012 281.140, 150.320 282.473 C 150.578 283.588, 151.822 288.100, 153.085 292.500 C 155.079 299.445, 155.375 302.675, 155.328 317 C 155.284 330.731, 154.916 334.759, 153.139 341 C 151.964 345.125, 149.638 353.838, 147.970 360.362 C 146.302 366.886, 143.158 377.545, 140.984 384.048 C 137.354 394.907, 134.881 400.945, 123.045 427.844 C 113.290 450.012, 113.560 463.903, 123.978 475.881 C 126.914 479.256, 129.523 481.810, 129.777 481.557 C 130.030 481.303, 128.947 477.587, 127.369 473.298 C 123.348 462.369, 123.330 451.934, 127.317 443.784 C 132.270 433.660, 147.230 421.973, 157.333 420.333 C 162.114 419.558, 162.044 420.737, 156.928 427.210 C 151.524 434.046, 149.306 438.582, 147.382 446.729 C 144.504 458.912, 147.284 481.614, 153.308 495.114 C 155.712 500.502, 159.455 504.878, 160.643 503.690 C 160.990 503.343, 160.499 497.508, 159.551 490.723 C 157.688 477.391, 158.213 470.568, 161.661 463.302 C 164.709 456.878, 174.192 449.092, 177.446 450.341 C 178.192 450.627, 178.944 453.432, 179.276 457.163 C 179.930 464.517, 182.712 474.296, 183.934 473.541 C 184.396 473.255, 185.063 471.477, 185.417 469.590 C 186.864 461.878, 189.251 455.784, 192.093 452.547 C 197.479 446.413, 205.405 445.531, 211.477 450.391 C 215.814 453.862, 215.474 458.252, 209.960 470 C 205.653 479.175, 205.505 479.808, 205.633 488.500 C 205.738 495.583, 206.423 499.523, 208.851 507 C 211.714 515.816, 212.407 516.966, 218.468 522.971 L 225 529.442 225 521.273 C 225 506.708, 230.987 492.827, 244.743 475.500 C 251.995 466.365, 258.111 460, 259.636 460 C 260.308 460, 261.415 462.496, 262.098 465.546 C 262.780 468.596, 263.700 471.315, 264.143 471.588 C 265.800 472.612, 281.684 438.763, 285.438 426.206 C 291.223 406.858, 292.160 400.524, 291.828 383 L 291.534 367.500 300.017 366.841 C 308.616 366.173, 318.854 363.086, 320.986 360.517 C 321.628 359.743, 322.006 358.073, 321.827 356.805 C 321.504 354.526, 321.326 354.497, 306.070 354.223 C 295.911 354.041, 290.145 353.536, 289.193 352.745 C 288.077 351.819, 287.871 349.936, 288.292 344.522 C 289.183 333.054, 287.111 333.999, 311.357 334.009 L 332.500 334.019 337.941 337.139 C 348.943 343.447, 356.005 353.057, 358.133 364.617 C 360.373 376.784, 359.973 375.757, 361.602 373.530 C 364.281 369.866, 365.469 363.539, 365.457 353 C 365.446 343.600, 365.169 341.976, 362.809 337.500 C 356.018 324.620, 343.364 318.364, 316.187 314.453 C 309.965 313.557, 299.165 312.526, 292.187 312.162 L 279.500 311.500 279 272.500 L 278.500 233.500 260.285 231.451 C 250.266 230.324, 241.890 229.199, 241.670 228.951 C 238.055 224.864, 238.123 217.723, 241.813 214.033 C 246.845 209.001, 249.866 208.821, 323.267 209.175 C 376.676 209.433, 390.963 209.236, 392.750 208.215 C 399.581 204.313, 390.345 184.352, 378.221 176.814 C 374.586 174.553, 373.819 174.493, 345.003 174.180 L 315.506 173.861 312.276 171.397 C 308.019 168.150, 304.600 162.150, 301.091 151.771 C 296.550 138.335, 294.820 136, 289.406 136 C 286.744 136, 284.916 136.958, 281.407 140.192 C 275.285 145.836, 272.539 150.877, 270.072 161 C 268.285 168.335, 267.458 170.014, 264.039 173.250 C 259.398 177.643, 255.313 178.289, 254.558 174.750 C 254.294 173.512, 253.843 164.625, 253.555 155 C 253.267 145.375, 252.752 130.300, 252.411 121.500 C 251.698 103.128, 253.060 92.587, 258.080 77.602 C 263.487 61.464, 269.907 50.034, 287.524 25.186 C 289.986 21.713, 292 18.451, 292 17.936 C 292 16.036, 289.023 17.099, 284.327 20.677 M 343.433 226.574 C 341.196 227.880, 333.177 230.494, 325.613 232.383 C 318.048 234.272, 310.991 236.603, 309.930 237.564 C 308.264 239.071, 308 240.704, 308 249.509 L 308 259.708 315.071 265.854 C 321.412 271.366, 322.593 272, 326.512 272 C 328.915 272, 331.133 271.594, 331.439 271.099 C 331.745 270.603, 331.066 267.186, 329.929 263.504 C 327.927 257.025, 327.919 256.746, 329.681 254.782 C 331.366 252.904, 332.260 252.803, 341.793 253.411 L 352.085 254.069 354.879 251.275 C 356.416 249.738, 357.859 247.972, 358.087 247.350 C 358.314 246.729, 361.538 244.849, 365.250 243.173 C 373.495 239.451, 373.727 238.122, 367.250 231.759 C 359.118 223.770, 351.193 222.045, 343.433 226.574 M 200.365 251.860 C 195.631 254.836, 191.795 263.515, 191.214 272.561 C 190.536 283.132, 193.450 291.639, 201.668 303.085 C 205.151 307.935, 208 312.366, 208 312.932 C 208 314.145, 204.781 314.914, 200.303 314.770 C 193.520 314.551, 192.677 318.665, 197.593 328 C 198.896 330.475, 200.445 335.052, 201.036 338.171 C 201.990 343.215, 202.452 343.962, 205.204 344.921 C 210.130 346.639, 210.697 346.342, 215.095 339.750 C 227.075 321.791, 239.294 314.933, 250.978 319.608 C 256.454 321.799, 258 320.997, 258 315.966 C 258 310.317, 256.715 308.396, 251 305.500 C 245.627 302.777, 243.997 300.638, 244.005 296.316 C 244.015 290.862, 249.073 269.706, 251.021 266.970 C 252.794 264.481, 252.827 264.147, 251.353 263.582 C 250.455 263.237, 245.082 263.255, 239.414 263.621 C 227.614 264.384, 223.762 263.374, 221.454 258.911 C 217.607 251.472, 206.754 247.843, 200.365 251.860 M 4 574.987 C 4 577.837, 4.217 578, 8.013 578 L 12.026 578 11.763 613.250 L 11.500 648.500 7.750 648.810 C 4.337 649.093, 4 649.385, 4 652.060 L 4 655 19.500 655 L 35 655 35 652 C 35 649.333, 34.667 649, 32 649 L 29 649 29 613.500 L 29 578 38.513 578 L 48.026 578 47.763 613.250 L 47.500 648.500 45 648.835 C 41.623 649.287, 40.672 650.391, 41.476 652.925 C 42.131 654.987, 42.611 655.043, 57.326 654.776 L 72.500 654.500 72.500 652 C 72.500 649.905, 71.933 649.419, 69 649 L 65.500 648.500 65.237 613.311 L 64.975 578.122 68.737 577.811 C 72.001 577.541, 72.500 577.169, 72.500 575 L 72.500 572.500 38.250 572.237 L 4 571.974 4 574.987 M 103 572.879 C 89.735 577.225, 82.155 586.807, 80.008 601.940 C 78.151 615.035, 79.532 619.524, 91.042 637.824 C 92.884 640.753, 94.899 645.690, 95.519 648.797 C 96.845 655.436, 97.452 655.749, 109.282 655.900 C 114.197 655.963, 118.406 655.439, 120.705 654.479 C 126.385 652.106, 132.909 646.209, 137.199 639.570 C 139.357 636.231, 142.026 633.165, 143.131 632.756 C 144.494 632.252, 145.038 631.286, 144.820 629.756 C 144.509 627.561, 144.143 627.492, 131.250 627.221 L 118 626.942 118 629.971 C 118 632.333, 118.440 633, 120 633 C 122.467 633, 122.485 634.336, 120.087 639.616 C 117.700 644.872, 112.395 648.957, 107.556 649.264 L 103.838 649.500 103.489 641.941 C 103.297 637.783, 102.208 630.733, 101.070 626.274 C 98.187 614.981, 98.321 611.615, 101.750 609.199 C 106.617 605.771, 108.574 605.643, 110.900 608.599 C 113.410 611.791, 113.558 613.588, 111.410 614.791 C 110.455 615.325, 109.955 616.645, 110.160 618.090 C 110.499 620.490, 110.553 620.500, 123 620.500 L 135.500 620.500 135.500 618 C 135.500 616.385, 134.723 615.159, 133.305 614.536 C 132.097 614.007, 130.853 612.552, 130.540 611.305 C 129.790 608.314, 124.423 602.270, 120.901 600.449 C 116.527 598.187, 108.110 598.610, 102.669 601.364 L 98 603.728 98 599.045 C 98 592.527, 100.586 584.494, 103.867 580.822 C 106.143 578.276, 107.391 577.727, 110.911 577.727 C 114.303 577.727, 115.778 578.325, 118.034 580.614 C 121.075 583.698, 123.018 589, 121.108 589 C 120.499 589, 120 590.350, 120 592 L 120 595 132.500 595 L 145 595 145 592 C 145 589.507, 144.598 589, 142.621 589 C 140.942 589, 139.891 588.151, 139.047 586.114 C 137.426 582.199, 132.460 577.283, 127.553 574.735 C 124.495 573.146, 121.292 572.560, 114.500 572.345 C 109.550 572.188, 104.375 572.429, 103 572.879 M 167.500 572.929 C 165.850 573.327, 163.563 574.156, 162.418 574.772 C 157.503 577.413, 157.530 577.215, 157 613.902 L 156.500 648.500 152.750 648.810 C 149.330 649.093, 149 649.381, 149 652.085 L 149 655.050 165.250 654.775 L 181.500 654.500 181.500 652 C 181.500 649.833, 181.001 649.459, 177.750 649.190 L 174 648.879 174 635.420 C 174 622.617, 174.128 621.754, 176.635 617.730 C 178.084 615.404, 179.352 613.394, 179.453 613.265 C 179.554 613.136, 181.388 613.923, 183.530 615.015 C 188.130 617.361, 190.874 617.497, 195.400 615.606 C 201.854 612.909, 206.385 604.219, 206.357 594.590 C 206.329 584.553, 199.858 575.450, 191 572.985 C 187.018 571.877, 172.007 571.841, 167.500 572.929 M 237 572.879 C 227.470 576.002, 219.499 583.376, 216.241 592.086 C 213.475 599.477, 212.531 609.423, 213.947 616.243 C 215.023 621.426, 216.581 624.462, 225.026 637.824 C 226.877 640.753, 228.899 645.690, 229.519 648.797 C 230.845 655.436, 231.452 655.749, 243.282 655.900 C 248.197 655.963, 252.406 655.439, 254.705 654.479 C 260.452 652.077, 266.555 646.488, 271.094 639.470 C 273.396 635.911, 275.861 633, 276.572 633 C 278.068 633, 279.425 629.497, 278.506 628.009 C 278.139 627.415, 272.601 627, 265.048 627 C 254.562 627, 252.109 627.274, 251.638 628.500 C 250.765 630.775, 251.986 633, 254.107 633 C 256.466 633, 256.462 634.386, 254.087 639.616 C 251.684 644.907, 246.397 648.958, 241.495 649.264 L 237.715 649.500 237.442 642 C 237.293 637.875, 236.232 630.825, 235.085 626.333 C 232.186 614.980, 232.317 611.617, 235.750 609.199 C 240.617 605.771, 242.574 605.643, 244.900 608.599 C 247.410 611.791, 247.558 613.588, 245.410 614.791 C 244.455 615.325, 243.955 616.645, 244.160 618.090 C 244.499 620.490, 244.553 620.500, 257 620.500 L 269.500 620.500 269.500 618 C 269.500 616.385, 268.723 615.159, 267.305 614.536 C 266.097 614.007, 264.853 612.552, 264.540 611.305 C 263.790 608.314, 258.423 602.270, 254.901 600.449 C 250.381 598.111, 241.235 598.604, 236.250 601.454 L 232 603.884 232 599.124 C 232 592.534, 234.572 584.510, 237.867 580.822 C 241.413 576.854, 247.726 576.455, 251.460 579.962 C 254.607 582.919, 256.855 588.215, 255.198 588.767 C 254.539 588.987, 254 590.479, 254 592.083 L 254 595 266.500 595 L 279 595 279 592 C 279 589.489, 278.604 589, 276.567 589 C 274.971 589, 273.905 588.275, 273.465 586.889 C 272.412 583.573, 266.036 577.063, 261.568 574.742 C 258.493 573.146, 255.303 572.560, 248.500 572.345 C 243.550 572.188, 238.375 572.429, 237 572.879 M 301.261 574.557 C 291.602 579.371, 286.055 587.726, 283.915 600.687 C 281.632 614.509, 284.257 624.088, 294.858 640.625 C 296.665 643.444, 298.706 647.944, 299.394 650.625 L 300.645 655.500 308.573 655.486 C 318.151 655.469, 321.840 653.894, 330.008 646.332 C 336.015 640.771, 339.393 634.648, 340.593 627.147 C 341.096 623.997, 341.706 623, 343.128 623 C 344.541 623, 345 622.265, 345 620 L 345 617 331.500 617 L 318 617 318 620 C 318 622.398, 318.429 623, 320.139 623 C 322.149 623, 322.245 623.364, 321.729 629.057 C 320.840 638.856, 315.114 648.674, 309.250 650.452 C 307.057 651.118, 307 650.946, 307 643.677 C 307 639.576, 306.078 631.783, 304.950 626.360 C 298.703 596.312, 303.354 575.090, 315.275 579.246 C 318.679 580.432, 320.676 584.075, 321.554 590.698 C 322.163 595.284, 322.034 595.758, 320.036 596.280 C 318.329 596.727, 317.923 597.468, 318.176 599.676 L 318.500 602.500 331.500 602.500 L 344.500 602.500 344.824 599.676 C 345.067 597.547, 344.661 596.724, 343.175 596.335 C 341.843 595.987, 340.481 593.818, 338.983 589.660 C 336.312 582.246, 329.190 574.702, 323.323 573.073 C 316.231 571.104, 306.937 571.729, 301.261 574.557 M 368.684 573.449 C 363.837 575.177, 361.144 577.585, 359.118 582 C 357.790 584.893, 357.424 590.963, 357.006 617 L 356.500 648.500 352.750 648.810 C 349.337 649.093, 349 649.385, 349 652.060 L 349 655 373.944 655 C 398.746 655, 398.904 654.986, 401.644 652.630 L 404.400 650.260 404.211 637.586 C 404.108 630.615, 403.595 624.112, 403.072 623.135 C 401.983 621.099, 397.021 618.809, 388.785 616.539 C 382.047 614.683, 376.860 610.790, 378.671 608.949 C 379.324 608.285, 382.901 607.701, 386.750 607.629 C 392.666 607.519, 394.186 607.097, 397.330 604.698 C 402.132 601.034, 404 597.231, 404 591.115 C 404 582.443, 400.856 577.285, 393.500 573.890 C 388.619 571.637, 374.469 571.386, 368.684 573.449 M 435.500 573.188 C 423.937 577.590, 416.809 586.130, 414.123 598.799 C 411.156 612.798, 413.063 619.595, 425.191 638.238 C 426.886 640.845, 428.790 645.553, 429.420 648.701 C 430.771 655.442, 431.368 655.749, 443.434 655.900 C 449.692 655.979, 452.333 655.536, 455.934 653.806 C 461.658 651.055, 469.913 642.736, 472.407 637.206 C 473.643 634.466, 474.948 633, 476.152 633 C 477.543 633, 478 632.250, 478 629.971 L 478 626.942 464.750 627.221 L 451.500 627.500 451.500 630 C 451.500 631.831, 452.102 632.585, 453.750 632.820 C 454.988 632.995, 455.990 633.670, 455.978 634.320 C 455.929 636.930, 452.090 643.784, 449.563 645.772 C 446.539 648.151, 440.588 650.363, 438.808 649.769 C 438.091 649.530, 437.535 646.622, 437.379 642.293 C 437.239 638.397, 436.197 631.301, 435.062 626.525 C 432.218 614.548, 432.335 611.605, 435.750 609.199 C 440.072 606.155, 442.462 605.742, 444.214 607.736 C 446.756 610.630, 447.303 613.731, 445.453 614.766 C 444.458 615.323, 443.952 616.623, 444.160 618.090 C 444.496 620.469, 444.658 620.504, 456.750 620.781 L 469 621.062 469 617.937 C 469 615.671, 468.460 614.671, 467.033 614.298 C 465.951 614.016, 464.774 612.820, 464.417 611.642 C 463.404 608.298, 459.081 603.020, 455.634 600.919 C 450.896 598.030, 441.738 598.316, 436.117 601.529 L 431.735 604.035 432.209 596.767 C 432.969 585.133, 437.706 577.800, 444.462 577.800 C 449.034 577.800, 452.637 580.170, 454.726 584.552 C 456.277 587.805, 456.269 588.083, 454.578 589.319 C 453.590 590.041, 452.949 591.502, 453.154 592.566 C 453.494 594.339, 454.583 594.523, 466.262 594.780 L 479 595.060 479 592.030 C 479 589.487, 478.609 589, 476.567 589 C 474.971 589, 473.905 588.275, 473.465 586.889 C 472.413 583.577, 466.038 577.064, 461.568 574.737 C 456.768 572.238, 440.531 571.273, 435.500 573.188 M 482.523 574.325 C 481.128 576.453, 481.210 577.268, 483.500 584 C 484.875 588.043, 486 593.039, 486 595.104 C 486 599.621, 488.314 602.437, 490.892 601.058 C 492.036 600.445, 493.398 597.073, 494.810 591.350 C 496.001 586.527, 497.768 581.794, 498.738 580.834 C 499.707 579.873, 502.418 578.784, 504.763 578.414 L 509.026 577.740 508.763 613.120 L 508.500 648.500 504.750 648.810 C 501.337 649.093, 501 649.385, 501 652.060 L 501 655 517 655 L 533 655 533 652.060 C 533 649.385, 532.663 649.093, 529.250 648.810 L 525.500 648.500 525.500 613.500 L 525.500 578.500 529.918 578.599 C 535.608 578.726, 537.347 580.833, 539.470 590.170 C 541.555 599.336, 542.578 601.201, 545.307 600.811 C 547.120 600.551, 547.608 599.590, 548.255 595 C 548.681 591.975, 549.975 586.642, 551.130 583.150 C 552.790 578.130, 553.001 576.297, 552.136 574.400 L 551.043 572 517.544 572 L 484.046 572 482.523 574.325 M 177.209 580.494 C 174.517 582.807, 174.498 582.916, 174.221 597.661 L 173.943 612.500 176.105 609.194 C 177.615 606.886, 178.755 606.085, 179.884 606.540 C 180.773 606.899, 182.029 607.409, 182.676 607.674 C 183.322 607.940, 184.672 606.903, 185.676 605.370 C 188.205 601.506, 188.299 585.631, 185.814 581.839 C 183.404 578.162, 180.460 577.701, 177.209 580.494 M 378.261 579.529 C 375.301 581.603, 374.012 586.870, 374.006 596.924 L 374 605.349 376.314 603.174 C 377.587 601.978, 379.563 601, 380.704 601 C 384.606 601, 387.219 597.772, 387.745 592.303 C 388.370 585.797, 386.672 580.627, 383.424 579.147 C 380.344 577.744, 380.866 577.705, 378.261 579.529 M 374 633.120 L 374 649.240 380.079 648.801 C 383.861 648.527, 386.501 647.820, 387.064 646.930 C 388.468 644.712, 388.215 627.654, 386.750 625.800 C 386.063 624.929, 383.625 623.061, 381.334 621.649 C 379.043 620.237, 376.879 618.613, 376.525 618.041 C 374.578 614.890, 374 618.344, 374 633.120" stroke="none" fill="#4c2c2c" fill-rule="evenodd"/><path d="M 253.500 1.140 C 142.949 10.699, 49.046 85.156, 14.035 191.015 C -5.006 248.589, -3.896 314.523, 17.087 372.254 C 26.339 397.711, 44.217 429.363, 61.282 450.500 C 103.210 502.433, 161.737 537.282, 227.500 549.472 C 264.633 556.356, 306.640 555.124, 343.500 546.072 C 421.117 527.009, 488.014 474.027, 523.808 403.268 C 541.419 368.452, 549.965 337.778, 553.611 296.295 C 555.379 276.166, 554.804 260.925, 551.374 237 C 539.335 153.040, 488.863 79.356, 413.764 36.105 C 366.595 8.939, 308.893 -3.650, 253.500 1.140 M 284.327 20.677 C 275.293 27.559, 205.515 89.794, 201.942 94.156 C 190.461 108.172, 181.533 126.708, 177.212 145.500 C 173.870 160.032, 168.867 205.656, 168.493 225 C 168.044 248.276, 163.773 262.963, 153.818 275.466 C 151.209 278.743, 150.012 281.140, 150.320 282.473 C 150.578 283.588, 151.822 288.100, 153.085 292.500 C 155.079 299.445, 155.375 302.675, 155.328 317 C 155.284 330.731, 154.916 334.759, 153.139 341 C 151.964 345.125, 149.638 353.838, 147.970 360.362 C 146.302 366.886, 143.158 377.545, 140.984 384.048 C 137.354 394.907, 134.881 400.945, 123.045 427.844 C 113.290 450.012, 113.560 463.903, 123.978 475.881 C 126.914 479.256, 129.523 481.810, 129.777 481.557 C 130.030 481.303, 128.947 477.587, 127.369 473.298 C 123.348 462.369, 123.330 451.934, 127.317 443.784 C 132.270 433.660, 147.230 421.973, 157.333 420.333 C 162.114 419.558, 162.044 420.737, 156.928 427.210 C 151.524 434.046, 149.306 438.582, 147.382 446.729 C 144.504 458.912, 147.284 481.614, 153.308 495.114 C 155.712 500.502, 159.455 504.878, 160.643 503.690 C 160.990 503.343, 160.499 497.508, 159.551 490.723 C 157.688 477.391, 158.213 470.568, 161.661 463.302 C 164.709 456.878, 174.192 449.092, 177.446 450.341 C 178.192 450.627, 178.944 453.432, 179.276 457.163 C 179.930 464.517, 182.712 474.296, 183.934 473.541 C 184.396 473.255, 185.063 471.477, 185.417 469.590 C 186.864 461.878, 189.251 455.784, 192.093 452.547 C 197.479 446.413, 205.405 445.531, 211.477 450.391 C 215.814 453.862, 215.474 458.252, 209.960 470 C 205.653 479.175, 205.505 479.808, 205.633 488.500 C 205.738 495.583, 206.423 499.523, 208.851 507 C 211.714 515.816, 212.407 516.966, 218.468 522.971 L 225 529.442 225 521.273 C 225 506.708, 230.987 492.827, 244.743 475.500 C 251.995 466.365, 258.111 460, 259.636 460 C 260.308 460, 261.415 462.496, 262.098 465.546 C 262.780 468.596, 263.700 471.315, 264.143 471.588 C 265.800 472.612, 281.684 438.763, 285.438 426.206 C 291.223 406.858, 292.160 400.524, 291.828 383 L 291.534 367.500 300.017 366.841 C 308.616 366.173, 318.854 363.086, 320.986 360.517 C 321.628 359.743, 322.006 358.073, 321.827 356.805 C 321.504 354.526, 321.326 354.497, 306.070 354.223 C 295.911 354.041, 290.145 353.536, 289.193 352.745 C 288.077 351.819, 287.871 349.936, 288.292 344.522 C 289.183 333.054, 287.111 333.999, 311.357 334.009 L 332.500 334.019 337.941 337.139 C 348.943 343.447, 356.005 353.057, 358.133 364.617 C 360.373 376.784, 359.973 375.757, 361.602 373.530 C 364.281 369.866, 365.469 363.539, 365.457 353 C 365.446 343.600, 365.169 341.976, 362.809 337.500 C 356.018 324.620, 343.364 318.364, 316.187 314.453 C 309.965 313.557, 299.165 312.526, 292.187 312.162 L 279.500 311.500 279 272.500 L 278.500 233.500 260.285 231.451 C 250.266 230.324, 241.890 229.199, 241.670 228.951 C 238.055 224.864, 238.123 217.723, 241.813 214.033 C 246.845 209.001, 249.866 208.821, 323.267 209.175 C 376.676 209.433, 390.963 209.236, 392.750 208.215 C 399.581 204.313, 390.345 184.352, 378.221 176.814 C 374.586 174.553, 373.819 174.493, 345.003 174.180 L 315.506 173.861 312.276 171.397 C 308.019 168.150, 304.600 162.150, 301.091 151.771 C 296.550 138.335, 294.820 136, 289.406 136 C 286.744 136, 284.916 136.958, 281.407 140.192 C 275.285 145.836, 272.539 150.877, 270.072 161 C 268.285 168.335, 267.458 170.014, 264.039 173.250 C 259.398 177.643, 255.313 178.289, 254.558 174.750 C 254.294 173.512, 253.843 164.625, 253.555 155 C 253.267 145.375, 252.752 130.300, 252.411 121.500 C 251.698 103.128, 253.060 92.587, 258.080 77.602 C 263.487 61.464, 269.907 50.034, 287.524 25.186 C 289.986 21.713, 292 18.451, 292 17.936 C 292 16.036, 289.023 17.099, 284.327 20.677 M 343.433 226.574 C 341.196 227.880, 333.177 230.494, 325.613 232.383 C 318.048 234.272, 310.991 236.603, 309.930 237.564 C 308.264 239.071, 308 240.704, 308 249.509 L 308 259.708 315.071 265.854 C 321.412 271.366, 322.593 272, 326.512 272 C 328.915 272, 331.133 271.594, 331.439 271.099 C 331.745 270.603, 331.066 267.186, 329.929 263.504 C 327.927 257.025, 327.919 256.746, 329.681 254.782 C 331.366 252.904, 332.260 252.803, 341.793 253.411 L 352.085 254.069 354.879 251.275 C 356.416 249.738, 357.859 247.972, 358.087 247.350 C 358.314 246.729, 361.538 244.849, 365.250 243.173 C 373.495 239.451, 373.727 238.122, 367.250 231.759 C 359.118 223.770, 351.193 222.045, 343.433 226.574 M 200.365 251.860 C 195.631 254.836, 191.795 263.515, 191.214 272.561 C 190.536 283.132, 193.450 291.639, 201.668 303.085 C 205.151 307.935, 208 312.366, 208 312.932 C 208 314.145, 204.781 314.914, 200.303 314.770 C 193.520 314.551, 192.677 318.665, 197.593 328 C 198.896 330.475, 200.445 335.052, 201.036 338.171 C 201.990 343.215, 202.452 343.962, 205.204 344.921 C 210.130 346.639, 210.697 346.342, 215.095 339.750 C 227.075 321.791, 239.294 314.933, 250.978 319.608 C 256.454 321.799, 258 320.997, 258 315.966 C 258 310.317, 256.715 308.396, 251 305.500 C 245.627 302.777, 243.997 300.638, 244.005 296.316 C 244.015 290.862, 249.073 269.706, 251.021 266.970 C 252.794 264.481, 252.827 264.147, 251.353 263.582 C 250.455 263.237, 245.082 263.255, 239.414 263.621 C 227.614 264.384, 223.762 263.374, 221.454 258.911 C 217.607 251.472, 206.754 247.843, 200.365 251.860 M 0.360 277 C 0.360 282.225, 0.529 284.363, 0.735 281.750 C 0.941 279.137, 0.941 274.863, 0.735 272.250 C 0.529 269.637, 0.360 271.775, 0.360 277" stroke="none" fill="#fb6b3b" fill-rule="evenodd"/></svg>